G04 EAGLE Gerber RS-274X export*
G75*
%MOMM*%
%FSLAX34Y34*%
%LPD*%
%INTop Copper*%
%IPPOS*%
%AMOC8*
5,1,8,0,0,1.08239X$1,22.5*%
G01*
%ADD10R,0.800000X0.800000*%
%ADD11R,1.428000X1.428000*%
%ADD12C,1.428000*%
%ADD13C,3.316000*%
%ADD14C,1.508000*%
%ADD15R,1.270000X1.143000*%
%ADD16C,2.100000*%
%ADD17R,1.676400X1.676400*%
%ADD18C,1.676400*%
%ADD19C,4.016000*%
%ADD20R,1.524000X1.524000*%
%ADD21P,1.649562X8X202.500000*%
%ADD22C,0.381000*%
%ADD23C,0.756400*%
%ADD24C,0.254000*%


D10*
X76200Y896500D03*
X76200Y881500D03*
X76200Y845700D03*
X76200Y830700D03*
X76200Y794900D03*
X76200Y779900D03*
D11*
X660400Y177800D03*
D12*
X635400Y177800D03*
X615400Y177800D03*
X590400Y177800D03*
D13*
X691100Y150700D03*
X559700Y150700D03*
D14*
X177400Y165100D03*
X152400Y165100D03*
X127400Y165100D03*
X1142600Y165100D03*
X1117600Y165100D03*
X1092600Y165100D03*
D15*
X127000Y880110D03*
X127000Y897890D03*
X127000Y829310D03*
X127000Y847090D03*
X127000Y778510D03*
X127000Y796290D03*
D16*
X1105900Y837800D03*
X1105900Y787800D03*
X1230900Y787800D03*
X1230900Y837800D03*
X1105900Y406000D03*
X1105900Y356000D03*
X1230900Y356000D03*
X1230900Y406000D03*
D17*
X1016000Y406400D03*
D18*
X1016000Y431800D03*
X1016000Y457200D03*
X1016000Y482600D03*
X1016000Y508000D03*
X1016000Y533400D03*
X1016000Y558800D03*
X1016000Y584200D03*
X1016000Y609600D03*
X1016000Y635000D03*
X1016000Y660400D03*
X1016000Y685800D03*
X1016000Y711200D03*
X1016000Y736600D03*
X1016000Y762000D03*
X1016000Y787400D03*
X1016000Y812800D03*
X1016000Y838200D03*
X1016000Y863600D03*
X1016000Y889000D03*
D19*
X1016000Y361950D03*
X1016000Y933450D03*
X254000Y361950D03*
X254000Y933450D03*
D20*
X829900Y454400D03*
D21*
X829900Y479800D03*
X804500Y454400D03*
X804500Y479800D03*
X779100Y454400D03*
X779100Y479800D03*
X753700Y454400D03*
X753700Y479800D03*
X728300Y454400D03*
X728300Y479800D03*
X702900Y454400D03*
X702900Y479800D03*
X677500Y454400D03*
X677500Y479800D03*
X652100Y454400D03*
X652100Y479800D03*
X626700Y454400D03*
X626700Y479800D03*
X601300Y454400D03*
X601300Y479800D03*
X575900Y454400D03*
X575900Y479800D03*
X550500Y454400D03*
X550500Y479800D03*
X525100Y454400D03*
X525100Y479800D03*
X499700Y454400D03*
X499700Y479800D03*
X474300Y454400D03*
X474300Y479800D03*
X448900Y454400D03*
X448900Y479800D03*
X423500Y454400D03*
X423500Y479800D03*
X398100Y454400D03*
X398100Y479800D03*
D20*
X829900Y708400D03*
D21*
X829900Y733800D03*
X804500Y708400D03*
X804500Y733800D03*
X779100Y708400D03*
X779100Y733800D03*
X753700Y708400D03*
X753700Y733800D03*
X728300Y708400D03*
X728300Y733800D03*
X702900Y708400D03*
X702900Y733800D03*
X677500Y708400D03*
X677500Y733800D03*
X652100Y708400D03*
X652100Y733800D03*
X626700Y708400D03*
X626700Y733800D03*
X601300Y708400D03*
X601300Y733800D03*
X575900Y708400D03*
X575900Y733800D03*
X550500Y708400D03*
X550500Y733800D03*
X525100Y708400D03*
X525100Y733800D03*
X499700Y708400D03*
X499700Y733800D03*
X474300Y708400D03*
X474300Y733800D03*
X448900Y708400D03*
X448900Y733800D03*
X423500Y708400D03*
X423500Y733800D03*
X398100Y708400D03*
X398100Y733800D03*
D22*
X76200Y863600D02*
X76200Y881500D01*
X76200Y830700D02*
X76200Y812800D01*
X76200Y779900D02*
X76200Y762000D01*
D23*
X76200Y762000D03*
X76200Y812800D03*
X76200Y863600D03*
X1066800Y355600D03*
X1066800Y787400D03*
D24*
X127000Y796290D02*
X125610Y794900D01*
X76200Y794900D01*
X76200Y845700D02*
X127000Y847090D01*
X125610Y896500D02*
X76200Y896500D01*
X125610Y896500D02*
X127000Y897890D01*
X127000Y778510D02*
X143510Y762000D01*
X762000Y762000D01*
X774700Y749300D01*
X779100Y744900D01*
X779100Y736600D01*
X779100Y733800D01*
X181610Y774700D02*
X127000Y829310D01*
X181610Y774700D02*
X774700Y774700D01*
X787400Y762000D01*
X804500Y744900D01*
X804500Y733800D01*
X219710Y787400D02*
X127000Y880110D01*
X776300Y787400D02*
X829900Y733800D01*
X776300Y787400D02*
X219710Y787400D01*
D22*
X616794Y458503D02*
X616794Y450297D01*
X616794Y458503D02*
X626700Y468409D01*
D24*
X616794Y450297D02*
X622300Y444791D01*
D22*
X622300Y419100D01*
X636606Y450297D02*
X636606Y458503D01*
X626700Y468409D02*
X626700Y479800D01*
X626700Y468409D02*
X636606Y458503D01*
X636606Y450297D02*
X635000Y448691D01*
X635000Y419100D01*
X622300Y419100D02*
X368300Y165100D01*
X177400Y165100D01*
X1107774Y161030D02*
X1113530Y155274D01*
X1121670Y155274D01*
X1107774Y161030D02*
X1107774Y163822D01*
X1131496Y165100D02*
X1142600Y165100D01*
X1107774Y163822D02*
X1096670Y174926D01*
X1121670Y155274D02*
X1131496Y165100D01*
X879174Y174926D02*
X635000Y419100D01*
X879174Y174926D02*
X1096670Y174926D01*
D24*
X181470Y174926D02*
X173330Y174926D01*
X163504Y165100D02*
X152400Y165100D01*
X188248Y168148D02*
X367037Y168148D01*
X173330Y174926D02*
X163504Y165100D01*
X181470Y174926D02*
X188248Y168148D01*
X367037Y168148D02*
X575900Y377011D01*
X575900Y454400D01*
X616794Y483903D02*
X622597Y489706D01*
X630803Y489706D01*
X639654Y480855D01*
X639654Y444500D01*
X639654Y439846D01*
X616794Y469894D02*
X601300Y454400D01*
X616794Y469894D02*
X616794Y483903D01*
X639654Y439846D02*
X639654Y418757D01*
X880437Y177974D02*
X1097933Y177974D01*
X1110807Y165100D02*
X1117600Y165100D01*
X1110807Y165100D02*
X1097933Y177974D01*
X880437Y177974D02*
X639654Y418757D01*
D22*
X631952Y449148D02*
X626700Y454400D01*
X631952Y449148D02*
X631952Y417837D01*
X884689Y165100D01*
X1092600Y165100D01*
X625348Y417837D02*
X369563Y162052D01*
X625348Y453048D02*
X626700Y454400D01*
X625348Y453048D02*
X625348Y417837D01*
X188248Y162052D02*
X181470Y155274D01*
X137226Y155274D01*
X127400Y165100D01*
X188248Y162052D02*
X369563Y162052D01*
D24*
X779100Y479800D02*
X790491Y479800D01*
X924046Y466846D02*
X1016000Y558800D01*
X924046Y466846D02*
X803445Y466846D01*
X790491Y479800D01*
X804500Y479800D02*
X815891Y479800D01*
X825797Y469894D01*
X901694Y469894D02*
X1016000Y584200D01*
X901694Y469894D02*
X825797Y469894D01*
X886200Y479800D02*
X1016000Y609600D01*
X886200Y479800D02*
X829900Y479800D01*
M02*
