G04 EAGLE Gerber RS-274X export*
G75*
%MOMM*%
%FSLAX34Y34*%
%LPD*%
%INBottom Copper*%
%IPPOS*%
%AMOC8*
5,1,8,0,0,1.08239X$1,22.5*%
G01*
%ADD10R,1.428000X1.428000*%
%ADD11C,1.428000*%
%ADD12C,3.316000*%
%ADD13C,1.508000*%
%ADD14R,1.270000X1.143000*%
%ADD15C,2.100000*%
%ADD16R,1.676400X1.676400*%
%ADD17C,1.676400*%
%ADD18C,4.016000*%
%ADD19R,1.524000X1.524000*%
%ADD20P,1.649562X8X202.500000*%
%ADD21C,0.381000*%
%ADD22C,0.756400*%
%ADD23C,0.254000*%


D10*
X660400Y177800D03*
D11*
X635400Y177800D03*
X615400Y177800D03*
X590400Y177800D03*
D12*
X691100Y150700D03*
X559700Y150700D03*
D13*
X177400Y165100D03*
X152400Y165100D03*
X127400Y165100D03*
X1142600Y165100D03*
X1117600Y165100D03*
X1092600Y165100D03*
D14*
X1066800Y821690D03*
X1066800Y803910D03*
X1066800Y389890D03*
X1066800Y372110D03*
D15*
X1105900Y837800D03*
X1105900Y787800D03*
X1230900Y787800D03*
X1230900Y837800D03*
X1105900Y406000D03*
X1105900Y356000D03*
X1230900Y356000D03*
X1230900Y406000D03*
D16*
X1016000Y406400D03*
D17*
X1016000Y431800D03*
X1016000Y457200D03*
X1016000Y482600D03*
X1016000Y508000D03*
X1016000Y533400D03*
X1016000Y558800D03*
X1016000Y584200D03*
X1016000Y609600D03*
X1016000Y635000D03*
X1016000Y660400D03*
X1016000Y685800D03*
X1016000Y711200D03*
X1016000Y736600D03*
X1016000Y762000D03*
X1016000Y787400D03*
X1016000Y812800D03*
X1016000Y838200D03*
X1016000Y863600D03*
X1016000Y889000D03*
D18*
X1016000Y361950D03*
X1016000Y933450D03*
X254000Y361950D03*
X254000Y933450D03*
D19*
X829900Y454400D03*
D20*
X829900Y479800D03*
X804500Y454400D03*
X804500Y479800D03*
X779100Y454400D03*
X779100Y479800D03*
X753700Y454400D03*
X753700Y479800D03*
X728300Y454400D03*
X728300Y479800D03*
X702900Y454400D03*
X702900Y479800D03*
X677500Y454400D03*
X677500Y479800D03*
X652100Y454400D03*
X652100Y479800D03*
X626700Y454400D03*
X626700Y479800D03*
X601300Y454400D03*
X601300Y479800D03*
X575900Y454400D03*
X575900Y479800D03*
X550500Y454400D03*
X550500Y479800D03*
X525100Y454400D03*
X525100Y479800D03*
X499700Y454400D03*
X499700Y479800D03*
X474300Y454400D03*
X474300Y479800D03*
X448900Y454400D03*
X448900Y479800D03*
X423500Y454400D03*
X423500Y479800D03*
X398100Y454400D03*
X398100Y479800D03*
D19*
X829900Y708400D03*
D20*
X829900Y733800D03*
X804500Y708400D03*
X804500Y733800D03*
X779100Y708400D03*
X779100Y733800D03*
X753700Y708400D03*
X753700Y733800D03*
X728300Y708400D03*
X728300Y733800D03*
X702900Y708400D03*
X702900Y733800D03*
X677500Y708400D03*
X677500Y733800D03*
X652100Y708400D03*
X652100Y733800D03*
X626700Y708400D03*
X626700Y733800D03*
X601300Y708400D03*
X601300Y733800D03*
X575900Y708400D03*
X575900Y733800D03*
X550500Y708400D03*
X550500Y733800D03*
X525100Y708400D03*
X525100Y733800D03*
X499700Y708400D03*
X499700Y733800D03*
X474300Y708400D03*
X474300Y733800D03*
X448900Y708400D03*
X448900Y733800D03*
X423500Y708400D03*
X423500Y733800D03*
X398100Y708400D03*
X398100Y733800D03*
D21*
X1105900Y356000D02*
X1230900Y356000D01*
X1230900Y787800D02*
X1105900Y787800D01*
D22*
X76200Y762000D03*
X76200Y812800D03*
X76200Y863600D03*
X1066800Y355600D03*
D21*
X1066800Y372110D01*
X1066800Y787400D02*
X1066800Y803910D01*
D22*
X1066800Y787400D03*
D23*
X1082910Y837800D02*
X1105900Y837800D01*
X1082910Y837800D02*
X1066800Y821690D01*
X1105900Y837800D02*
X1230900Y837800D01*
X1066800Y821690D02*
X1017778Y772668D01*
X767891Y736600D02*
X762000Y736600D01*
X803959Y772668D02*
X1017778Y772668D01*
X803959Y772668D02*
X767891Y736600D01*
X1082910Y406000D02*
X1105900Y406000D01*
X1082910Y406000D02*
X1066800Y389890D01*
X1105900Y406000D02*
X1230900Y406000D01*
X1066800Y389890D02*
X1066800Y635000D01*
X1026668Y675132D01*
X739691Y733800D02*
X728300Y733800D01*
X1011581Y675132D02*
X1026668Y675132D01*
X749597Y723894D02*
X739691Y733800D01*
X962819Y723894D02*
X1011581Y675132D01*
X962819Y723894D02*
X749597Y723894D01*
D21*
X660400Y361100D02*
X660400Y177800D01*
X660400Y361100D02*
X753700Y454400D01*
X590400Y387200D02*
X590400Y177800D01*
X652100Y448900D02*
X652100Y454400D01*
X652100Y448900D02*
X590400Y387200D01*
D23*
X615400Y366900D02*
X615400Y177800D01*
X615400Y366900D02*
X702900Y454400D01*
X635400Y361500D02*
X635400Y177800D01*
X635400Y361500D02*
X728300Y454400D01*
X756500Y508000D02*
X1016000Y508000D01*
X756500Y508000D02*
X728300Y479800D01*
X993648Y511048D02*
X1016000Y533400D01*
X714291Y479800D02*
X702900Y479800D01*
X745539Y511048D02*
X993648Y511048D01*
X745539Y511048D02*
X714291Y479800D01*
X841109Y482600D02*
X1016000Y482600D01*
X841109Y482600D02*
X834003Y489706D01*
X763606Y489706D01*
X753700Y479800D01*
D21*
X663491Y479800D02*
X652100Y479800D01*
X663491Y479800D02*
X673397Y469894D01*
X952506Y469894D02*
X1016000Y406400D01*
X952506Y469894D02*
X673397Y469894D01*
M02*
