G04 EAGLE Gerber RS-274X export*
G75*
%MOMM*%
%FSLAX34Y34*%
%LPD*%
%INCopper Layer 2*%
%IPPOS*%
%AMOC8*
5,1,8,0,0,1.08239X$1,22.5*%
G01*
%ADD10C,1.428000*%
%ADD11C,3.316000*%
%ADD12C,1.508000*%
%ADD13C,2.100000*%
%ADD14C,4.016000*%
%ADD15C,1.397000*%
%ADD16C,0.756400*%
%ADD17C,0.381000*%

G36*
X1258488Y10176D02*
X1258488Y10176D01*
X1258607Y10183D01*
X1258645Y10196D01*
X1258686Y10201D01*
X1258796Y10244D01*
X1258909Y10281D01*
X1258944Y10303D01*
X1258981Y10318D01*
X1259077Y10387D01*
X1259178Y10451D01*
X1259206Y10481D01*
X1259239Y10504D01*
X1259315Y10596D01*
X1259396Y10683D01*
X1259416Y10718D01*
X1259441Y10749D01*
X1259492Y10857D01*
X1259550Y10961D01*
X1259560Y11001D01*
X1259577Y11037D01*
X1259599Y11154D01*
X1259629Y11269D01*
X1259633Y11329D01*
X1259637Y11349D01*
X1259635Y11370D01*
X1259639Y11430D01*
X1259639Y988570D01*
X1259624Y988688D01*
X1259617Y988807D01*
X1259604Y988845D01*
X1259599Y988886D01*
X1259556Y988996D01*
X1259519Y989109D01*
X1259497Y989144D01*
X1259482Y989181D01*
X1259413Y989277D01*
X1259349Y989378D01*
X1259319Y989406D01*
X1259296Y989439D01*
X1259204Y989515D01*
X1259117Y989596D01*
X1259082Y989616D01*
X1259051Y989641D01*
X1258943Y989692D01*
X1258839Y989750D01*
X1258799Y989760D01*
X1258763Y989777D01*
X1258646Y989799D01*
X1258531Y989829D01*
X1258471Y989833D01*
X1258451Y989837D01*
X1258430Y989835D01*
X1258370Y989839D01*
X11430Y989839D01*
X11312Y989824D01*
X11193Y989817D01*
X11155Y989804D01*
X11114Y989799D01*
X11004Y989756D01*
X10891Y989719D01*
X10856Y989697D01*
X10819Y989682D01*
X10723Y989613D01*
X10622Y989549D01*
X10594Y989519D01*
X10561Y989496D01*
X10485Y989404D01*
X10404Y989317D01*
X10384Y989282D01*
X10359Y989251D01*
X10308Y989143D01*
X10250Y989039D01*
X10240Y988999D01*
X10223Y988963D01*
X10201Y988846D01*
X10171Y988731D01*
X10167Y988671D01*
X10163Y988651D01*
X10165Y988630D01*
X10161Y988570D01*
X10161Y11430D01*
X10176Y11312D01*
X10183Y11193D01*
X10196Y11155D01*
X10201Y11114D01*
X10244Y11004D01*
X10281Y10891D01*
X10303Y10856D01*
X10318Y10819D01*
X10387Y10723D01*
X10451Y10622D01*
X10481Y10594D01*
X10504Y10561D01*
X10596Y10485D01*
X10683Y10404D01*
X10718Y10384D01*
X10749Y10359D01*
X10857Y10308D01*
X10961Y10250D01*
X11001Y10240D01*
X11037Y10223D01*
X11154Y10201D01*
X11269Y10171D01*
X11329Y10167D01*
X11349Y10163D01*
X11370Y10165D01*
X11430Y10161D01*
X1258370Y10161D01*
X1258488Y10176D01*
G37*
%LPC*%
G36*
X1065744Y350293D02*
X1065744Y350293D01*
X1063794Y351101D01*
X1062301Y352594D01*
X1061493Y354544D01*
X1061493Y355531D01*
X1061481Y355629D01*
X1061478Y355728D01*
X1061461Y355786D01*
X1061453Y355846D01*
X1061417Y355938D01*
X1061389Y356033D01*
X1061359Y356086D01*
X1061336Y356142D01*
X1061278Y356222D01*
X1061228Y356307D01*
X1061162Y356383D01*
X1061150Y356399D01*
X1061140Y356407D01*
X1061122Y356428D01*
X1022396Y395153D01*
X1022396Y397338D01*
X1022390Y397388D01*
X1022392Y397437D01*
X1022370Y397545D01*
X1022356Y397654D01*
X1022338Y397700D01*
X1022328Y397749D01*
X1022280Y397847D01*
X1022239Y397949D01*
X1022210Y397990D01*
X1022188Y398034D01*
X1022117Y398118D01*
X1022053Y398207D01*
X1022014Y398239D01*
X1021982Y398276D01*
X1021892Y398340D01*
X1021808Y398410D01*
X1021763Y398431D01*
X1021722Y398459D01*
X1021619Y398498D01*
X1021520Y398545D01*
X1021471Y398554D01*
X1021425Y398572D01*
X1021315Y398584D01*
X1021208Y398605D01*
X1021158Y398602D01*
X1021109Y398607D01*
X1021000Y398592D01*
X1020890Y398585D01*
X1020843Y398570D01*
X1020794Y398563D01*
X1020641Y398511D01*
X1017803Y397335D01*
X1014197Y397335D01*
X1010865Y398715D01*
X1008315Y401265D01*
X1006935Y404597D01*
X1006935Y408203D01*
X1008111Y411041D01*
X1008124Y411089D01*
X1008145Y411134D01*
X1008166Y411242D01*
X1008195Y411348D01*
X1008196Y411398D01*
X1008205Y411447D01*
X1008198Y411556D01*
X1008200Y411666D01*
X1008188Y411714D01*
X1008185Y411764D01*
X1008151Y411868D01*
X1008126Y411975D01*
X1008102Y412019D01*
X1008087Y412066D01*
X1008028Y412159D01*
X1007977Y412256D01*
X1007944Y412293D01*
X1007917Y412335D01*
X1007837Y412410D01*
X1007763Y412492D01*
X1007722Y412519D01*
X1007685Y412553D01*
X1007589Y412606D01*
X1007497Y412666D01*
X1007450Y412683D01*
X1007407Y412707D01*
X1007301Y412734D01*
X1007197Y412770D01*
X1007147Y412774D01*
X1007099Y412786D01*
X1006938Y412796D01*
X1004753Y412796D01*
X932280Y485270D01*
X932202Y485330D01*
X932130Y485398D01*
X932077Y485427D01*
X932029Y485464D01*
X931938Y485504D01*
X931851Y485552D01*
X931793Y485567D01*
X931737Y485591D01*
X931639Y485606D01*
X931543Y485631D01*
X931443Y485637D01*
X931423Y485641D01*
X931411Y485639D01*
X931383Y485641D01*
X838591Y485641D01*
X838542Y485635D01*
X838492Y485637D01*
X838385Y485615D01*
X838275Y485601D01*
X838229Y485583D01*
X838181Y485573D01*
X838082Y485525D01*
X837980Y485484D01*
X837940Y485455D01*
X837895Y485433D01*
X837811Y485362D01*
X837722Y485298D01*
X837691Y485259D01*
X837653Y485227D01*
X837590Y485137D01*
X837520Y485053D01*
X837498Y485008D01*
X837470Y484967D01*
X837431Y484864D01*
X837384Y484765D01*
X837375Y484716D01*
X837357Y484670D01*
X837345Y484560D01*
X837324Y484453D01*
X837327Y484403D01*
X837322Y484354D01*
X837337Y484245D01*
X837344Y484135D01*
X837359Y484088D01*
X837366Y484039D01*
X837418Y483886D01*
X838410Y481493D01*
X838410Y478107D01*
X837114Y474980D01*
X834720Y472586D01*
X831593Y471290D01*
X828207Y471290D01*
X825080Y472586D01*
X822686Y474980D01*
X821390Y478107D01*
X821390Y481493D01*
X822382Y483886D01*
X822395Y483934D01*
X822416Y483979D01*
X822437Y484087D01*
X822466Y484193D01*
X822466Y484243D01*
X822476Y484292D01*
X822469Y484401D01*
X822471Y484511D01*
X822459Y484559D01*
X822456Y484609D01*
X822422Y484713D01*
X822397Y484820D01*
X822373Y484864D01*
X822358Y484911D01*
X822299Y485004D01*
X822248Y485101D01*
X822214Y485138D01*
X822188Y485180D01*
X822108Y485255D01*
X822034Y485337D01*
X821992Y485364D01*
X821956Y485398D01*
X821860Y485451D01*
X821768Y485511D01*
X821721Y485528D01*
X821678Y485552D01*
X821571Y485579D01*
X821467Y485615D01*
X821418Y485619D01*
X821370Y485631D01*
X821209Y485641D01*
X813191Y485641D01*
X813142Y485635D01*
X813092Y485637D01*
X812985Y485615D01*
X812875Y485601D01*
X812829Y485583D01*
X812781Y485573D01*
X812682Y485525D01*
X812580Y485484D01*
X812540Y485455D01*
X812495Y485433D01*
X812411Y485362D01*
X812322Y485298D01*
X812291Y485259D01*
X812253Y485227D01*
X812190Y485137D01*
X812120Y485053D01*
X812098Y485008D01*
X812070Y484967D01*
X812031Y484864D01*
X811984Y484765D01*
X811975Y484716D01*
X811957Y484670D01*
X811945Y484560D01*
X811924Y484453D01*
X811927Y484403D01*
X811922Y484354D01*
X811937Y484245D01*
X811944Y484135D01*
X811959Y484088D01*
X811966Y484039D01*
X812018Y483886D01*
X813010Y481493D01*
X813010Y478107D01*
X811714Y474980D01*
X809320Y472586D01*
X806193Y471290D01*
X802807Y471290D01*
X799680Y472586D01*
X797286Y474980D01*
X795990Y478107D01*
X795990Y481493D01*
X796982Y483886D01*
X796995Y483934D01*
X797016Y483979D01*
X797037Y484087D01*
X797066Y484193D01*
X797066Y484243D01*
X797076Y484292D01*
X797069Y484401D01*
X797071Y484511D01*
X797059Y484559D01*
X797056Y484609D01*
X797022Y484713D01*
X796997Y484820D01*
X796973Y484864D01*
X796958Y484911D01*
X796899Y485004D01*
X796848Y485101D01*
X796814Y485138D01*
X796788Y485180D01*
X796708Y485255D01*
X796634Y485337D01*
X796592Y485364D01*
X796556Y485398D01*
X796460Y485451D01*
X796368Y485511D01*
X796321Y485528D01*
X796278Y485552D01*
X796171Y485579D01*
X796067Y485615D01*
X796018Y485619D01*
X795970Y485631D01*
X795809Y485641D01*
X787791Y485641D01*
X787742Y485635D01*
X787692Y485637D01*
X787585Y485615D01*
X787475Y485601D01*
X787429Y485583D01*
X787381Y485573D01*
X787282Y485525D01*
X787180Y485484D01*
X787140Y485455D01*
X787095Y485433D01*
X787011Y485362D01*
X786922Y485298D01*
X786891Y485259D01*
X786853Y485227D01*
X786790Y485137D01*
X786720Y485053D01*
X786698Y485008D01*
X786670Y484967D01*
X786631Y484864D01*
X786584Y484765D01*
X786575Y484716D01*
X786557Y484670D01*
X786545Y484560D01*
X786524Y484453D01*
X786527Y484403D01*
X786522Y484354D01*
X786537Y484245D01*
X786544Y484135D01*
X786559Y484088D01*
X786566Y484039D01*
X786618Y483886D01*
X787610Y481493D01*
X787610Y478107D01*
X786314Y474980D01*
X783920Y472586D01*
X780793Y471290D01*
X777407Y471290D01*
X774280Y472586D01*
X771886Y474980D01*
X770590Y478107D01*
X770590Y481493D01*
X771582Y483886D01*
X771595Y483934D01*
X771616Y483979D01*
X771637Y484087D01*
X771666Y484193D01*
X771666Y484243D01*
X771676Y484292D01*
X771669Y484401D01*
X771671Y484511D01*
X771659Y484559D01*
X771656Y484609D01*
X771622Y484713D01*
X771597Y484820D01*
X771573Y484864D01*
X771558Y484911D01*
X771499Y485004D01*
X771448Y485101D01*
X771414Y485138D01*
X771388Y485180D01*
X771308Y485255D01*
X771234Y485337D01*
X771192Y485364D01*
X771156Y485398D01*
X771060Y485451D01*
X770968Y485511D01*
X770921Y485528D01*
X770878Y485552D01*
X770771Y485579D01*
X770667Y485615D01*
X770618Y485619D01*
X770570Y485631D01*
X770409Y485641D01*
X762391Y485641D01*
X762342Y485635D01*
X762292Y485637D01*
X762185Y485615D01*
X762075Y485601D01*
X762029Y485583D01*
X761981Y485573D01*
X761882Y485525D01*
X761780Y485484D01*
X761740Y485455D01*
X761695Y485433D01*
X761611Y485362D01*
X761522Y485298D01*
X761491Y485259D01*
X761453Y485227D01*
X761390Y485137D01*
X761320Y485053D01*
X761298Y485008D01*
X761270Y484967D01*
X761231Y484864D01*
X761184Y484765D01*
X761175Y484716D01*
X761157Y484670D01*
X761145Y484560D01*
X761124Y484453D01*
X761127Y484403D01*
X761122Y484354D01*
X761137Y484245D01*
X761144Y484135D01*
X761159Y484088D01*
X761166Y484039D01*
X761218Y483886D01*
X762210Y481493D01*
X762210Y478107D01*
X760914Y474980D01*
X758520Y472586D01*
X755393Y471290D01*
X752007Y471290D01*
X748880Y472586D01*
X746486Y474980D01*
X745190Y478107D01*
X745190Y481493D01*
X746182Y483886D01*
X746195Y483934D01*
X746216Y483979D01*
X746237Y484087D01*
X746266Y484193D01*
X746266Y484243D01*
X746276Y484292D01*
X746269Y484401D01*
X746271Y484511D01*
X746259Y484559D01*
X746256Y484609D01*
X746222Y484713D01*
X746197Y484820D01*
X746173Y484864D01*
X746158Y484911D01*
X746099Y485004D01*
X746048Y485101D01*
X746014Y485138D01*
X745988Y485180D01*
X745908Y485255D01*
X745834Y485337D01*
X745792Y485364D01*
X745756Y485398D01*
X745660Y485451D01*
X745568Y485511D01*
X745521Y485528D01*
X745478Y485552D01*
X745371Y485579D01*
X745267Y485615D01*
X745218Y485619D01*
X745170Y485631D01*
X745009Y485641D01*
X736991Y485641D01*
X736942Y485635D01*
X736892Y485637D01*
X736785Y485615D01*
X736675Y485601D01*
X736629Y485583D01*
X736581Y485573D01*
X736482Y485525D01*
X736380Y485484D01*
X736340Y485455D01*
X736295Y485433D01*
X736211Y485362D01*
X736122Y485298D01*
X736091Y485259D01*
X736053Y485227D01*
X735990Y485137D01*
X735920Y485053D01*
X735898Y485008D01*
X735870Y484967D01*
X735831Y484864D01*
X735784Y484765D01*
X735775Y484716D01*
X735757Y484670D01*
X735745Y484560D01*
X735724Y484453D01*
X735727Y484403D01*
X735722Y484354D01*
X735737Y484245D01*
X735744Y484135D01*
X735759Y484088D01*
X735766Y484039D01*
X735818Y483886D01*
X736810Y481493D01*
X736810Y478107D01*
X735514Y474980D01*
X733120Y472586D01*
X729993Y471290D01*
X726607Y471290D01*
X723480Y472586D01*
X721086Y474980D01*
X719790Y478107D01*
X719790Y481493D01*
X720782Y483886D01*
X720795Y483934D01*
X720816Y483979D01*
X720837Y484087D01*
X720866Y484193D01*
X720866Y484243D01*
X720876Y484292D01*
X720869Y484401D01*
X720871Y484511D01*
X720859Y484559D01*
X720856Y484609D01*
X720822Y484713D01*
X720797Y484820D01*
X720773Y484864D01*
X720758Y484911D01*
X720699Y485004D01*
X720648Y485101D01*
X720614Y485138D01*
X720588Y485180D01*
X720508Y485255D01*
X720434Y485337D01*
X720392Y485364D01*
X720356Y485398D01*
X720260Y485451D01*
X720168Y485511D01*
X720121Y485528D01*
X720078Y485552D01*
X719971Y485579D01*
X719867Y485615D01*
X719818Y485619D01*
X719770Y485631D01*
X719609Y485641D01*
X711591Y485641D01*
X711542Y485635D01*
X711492Y485637D01*
X711385Y485615D01*
X711275Y485601D01*
X711229Y485583D01*
X711181Y485573D01*
X711082Y485525D01*
X710980Y485484D01*
X710940Y485455D01*
X710895Y485433D01*
X710811Y485362D01*
X710722Y485298D01*
X710691Y485259D01*
X710653Y485227D01*
X710590Y485137D01*
X710520Y485053D01*
X710498Y485008D01*
X710470Y484967D01*
X710431Y484864D01*
X710384Y484765D01*
X710375Y484716D01*
X710357Y484670D01*
X710345Y484560D01*
X710324Y484453D01*
X710327Y484403D01*
X710322Y484354D01*
X710337Y484245D01*
X710344Y484135D01*
X710359Y484088D01*
X710366Y484039D01*
X710418Y483886D01*
X711410Y481493D01*
X711410Y478107D01*
X710114Y474980D01*
X707720Y472586D01*
X704593Y471290D01*
X701207Y471290D01*
X698080Y472586D01*
X695686Y474980D01*
X694694Y477373D01*
X694670Y477416D01*
X694653Y477463D01*
X694591Y477554D01*
X694537Y477649D01*
X694502Y477685D01*
X694474Y477726D01*
X694392Y477799D01*
X694316Y477878D01*
X694273Y477904D01*
X694236Y477937D01*
X694138Y477987D01*
X694044Y478044D01*
X693997Y478059D01*
X693953Y478081D01*
X693845Y478105D01*
X693740Y478138D01*
X693691Y478140D01*
X693642Y478151D01*
X693533Y478148D01*
X693423Y478153D01*
X693374Y478143D01*
X693324Y478141D01*
X693219Y478111D01*
X693111Y478089D01*
X693067Y478067D01*
X693019Y478053D01*
X692924Y477997D01*
X692826Y477949D01*
X692788Y477917D01*
X692745Y477891D01*
X692624Y477785D01*
X691209Y476370D01*
X686138Y476370D01*
X686109Y476367D01*
X686080Y476369D01*
X685951Y476347D01*
X685823Y476330D01*
X685795Y476320D01*
X685766Y476315D01*
X685648Y476261D01*
X685527Y476213D01*
X685503Y476196D01*
X685476Y476184D01*
X685375Y476103D01*
X685270Y476027D01*
X685251Y476004D01*
X685228Y475985D01*
X685150Y475882D01*
X685067Y475782D01*
X685054Y475755D01*
X685037Y475731D01*
X684966Y475587D01*
X684714Y474980D01*
X682320Y472586D01*
X679193Y471290D01*
X675807Y471290D01*
X672680Y472586D01*
X670286Y474980D01*
X668990Y478107D01*
X668990Y481493D01*
X670286Y484620D01*
X672680Y487014D01*
X675807Y488310D01*
X679193Y488310D01*
X682320Y487014D01*
X684714Y484620D01*
X684966Y484013D01*
X684980Y483988D01*
X684989Y483960D01*
X685059Y483850D01*
X685123Y483737D01*
X685144Y483716D01*
X685160Y483691D01*
X685254Y483602D01*
X685345Y483509D01*
X685370Y483493D01*
X685391Y483473D01*
X685505Y483410D01*
X685616Y483342D01*
X685644Y483334D01*
X685670Y483319D01*
X685795Y483287D01*
X685920Y483249D01*
X685949Y483247D01*
X685978Y483240D01*
X686138Y483230D01*
X687842Y483230D01*
X687941Y483242D01*
X688040Y483245D01*
X688098Y483262D01*
X688158Y483270D01*
X688250Y483306D01*
X688345Y483334D01*
X688397Y483364D01*
X688454Y483387D01*
X688534Y483445D01*
X688619Y483495D01*
X688694Y483561D01*
X688711Y483573D01*
X688719Y483583D01*
X688740Y483601D01*
X697639Y492501D01*
X934750Y492501D01*
X1007223Y420027D01*
X1007301Y419967D01*
X1007373Y419899D01*
X1007426Y419870D01*
X1007474Y419833D01*
X1007565Y419793D01*
X1007652Y419745D01*
X1007710Y419730D01*
X1007766Y419706D01*
X1007864Y419691D01*
X1007960Y419666D01*
X1008060Y419660D01*
X1008080Y419656D01*
X1008092Y419658D01*
X1008120Y419656D01*
X1021491Y419656D01*
X1029256Y411891D01*
X1029256Y398520D01*
X1029268Y398422D01*
X1029271Y398323D01*
X1029288Y398265D01*
X1029296Y398205D01*
X1029332Y398113D01*
X1029360Y398018D01*
X1029390Y397965D01*
X1029413Y397909D01*
X1029471Y397829D01*
X1029521Y397744D01*
X1029587Y397668D01*
X1029599Y397652D01*
X1029609Y397644D01*
X1029627Y397623D01*
X1065972Y361278D01*
X1066050Y361218D01*
X1066122Y361150D01*
X1066175Y361121D01*
X1066223Y361084D01*
X1066314Y361044D01*
X1066401Y360996D01*
X1066459Y360981D01*
X1066515Y360957D01*
X1066613Y360942D01*
X1066709Y360917D01*
X1066809Y360911D01*
X1066829Y360907D01*
X1066841Y360909D01*
X1066869Y360907D01*
X1067856Y360907D01*
X1069806Y360099D01*
X1071299Y358606D01*
X1072107Y356656D01*
X1072107Y354544D01*
X1071299Y352594D01*
X1069806Y351101D01*
X1067856Y350293D01*
X1065744Y350293D01*
G37*
%LPD*%
%LPC*%
G36*
X97892Y72439D02*
X97892Y72439D01*
X89564Y75889D01*
X83189Y82264D01*
X79739Y90592D01*
X79739Y99608D01*
X83189Y107936D01*
X89564Y114311D01*
X97892Y117761D01*
X106908Y117761D01*
X115236Y114311D01*
X121611Y107936D01*
X125061Y99608D01*
X125061Y90592D01*
X121611Y82264D01*
X115236Y75889D01*
X106908Y72439D01*
X97892Y72439D01*
G37*
%LPD*%
%LPC*%
G36*
X197892Y72439D02*
X197892Y72439D01*
X189564Y75889D01*
X183189Y82264D01*
X179739Y90592D01*
X179739Y99608D01*
X183189Y107936D01*
X189564Y114311D01*
X197892Y117761D01*
X206908Y117761D01*
X215236Y114311D01*
X221611Y107936D01*
X225061Y99608D01*
X225061Y90592D01*
X221611Y82264D01*
X215236Y75889D01*
X206908Y72439D01*
X197892Y72439D01*
G37*
%LPD*%
%LPC*%
G36*
X1163092Y72439D02*
X1163092Y72439D01*
X1154764Y75889D01*
X1148389Y82264D01*
X1144939Y90592D01*
X1144939Y99608D01*
X1148389Y107936D01*
X1154764Y114311D01*
X1163092Y117761D01*
X1172108Y117761D01*
X1180436Y114311D01*
X1186811Y107936D01*
X1190261Y99608D01*
X1190261Y90592D01*
X1186811Y82264D01*
X1180436Y75889D01*
X1172108Y72439D01*
X1163092Y72439D01*
G37*
%LPD*%
%LPC*%
G36*
X1063092Y72439D02*
X1063092Y72439D01*
X1054764Y75889D01*
X1048389Y82264D01*
X1044939Y90592D01*
X1044939Y99608D01*
X1048389Y107936D01*
X1054764Y114311D01*
X1063092Y117761D01*
X1072108Y117761D01*
X1080436Y114311D01*
X1086811Y107936D01*
X1090261Y99608D01*
X1090261Y90592D01*
X1086811Y82264D01*
X1080436Y75889D01*
X1072108Y72439D01*
X1063092Y72439D01*
G37*
%LPD*%
%LPC*%
G36*
X1011703Y911845D02*
X1011703Y911845D01*
X1003762Y915134D01*
X997684Y921212D01*
X994395Y929153D01*
X994395Y937747D01*
X997684Y945688D01*
X1003762Y951766D01*
X1011703Y955055D01*
X1020297Y955055D01*
X1028238Y951766D01*
X1034316Y945688D01*
X1037605Y937747D01*
X1037605Y929153D01*
X1034316Y921212D01*
X1028238Y915134D01*
X1020297Y911845D01*
X1011703Y911845D01*
G37*
%LPD*%
%LPC*%
G36*
X249703Y911845D02*
X249703Y911845D01*
X241762Y915134D01*
X235684Y921212D01*
X232395Y929153D01*
X232395Y937747D01*
X235684Y945688D01*
X241762Y951766D01*
X249703Y955055D01*
X258297Y955055D01*
X266238Y951766D01*
X272316Y945688D01*
X275605Y937747D01*
X275605Y929153D01*
X272316Y921212D01*
X266238Y915134D01*
X258297Y911845D01*
X249703Y911845D01*
G37*
%LPD*%
%LPC*%
G36*
X249703Y340345D02*
X249703Y340345D01*
X241762Y343634D01*
X235684Y349712D01*
X232395Y357653D01*
X232395Y366247D01*
X235684Y374188D01*
X241762Y380266D01*
X249703Y383555D01*
X258297Y383555D01*
X266238Y380266D01*
X272316Y374188D01*
X275605Y366247D01*
X275605Y357653D01*
X272316Y349712D01*
X266238Y343634D01*
X258297Y340345D01*
X249703Y340345D01*
G37*
%LPD*%
%LPC*%
G36*
X1011703Y340345D02*
X1011703Y340345D01*
X1003762Y343634D01*
X997684Y349712D01*
X994395Y357653D01*
X994395Y366247D01*
X997684Y374188D01*
X1003762Y380266D01*
X1011703Y383555D01*
X1020297Y383555D01*
X1028238Y380266D01*
X1034316Y374188D01*
X1037605Y366247D01*
X1037605Y357653D01*
X1034316Y349712D01*
X1028238Y343634D01*
X1020297Y340345D01*
X1011703Y340345D01*
G37*
%LPD*%
%LPC*%
G36*
X556099Y132595D02*
X556099Y132595D01*
X549445Y135352D01*
X544352Y140445D01*
X541595Y147099D01*
X541595Y154301D01*
X544352Y160955D01*
X549445Y166048D01*
X556099Y168805D01*
X563301Y168805D01*
X569955Y166048D01*
X575048Y160955D01*
X577805Y154301D01*
X577805Y147099D01*
X575048Y140445D01*
X569955Y135352D01*
X563301Y132595D01*
X556099Y132595D01*
G37*
%LPD*%
%LPC*%
G36*
X687499Y132595D02*
X687499Y132595D01*
X680845Y135352D01*
X675752Y140445D01*
X672995Y147099D01*
X672995Y154301D01*
X675752Y160955D01*
X680845Y166048D01*
X687499Y168805D01*
X694701Y168805D01*
X701355Y166048D01*
X706448Y160955D01*
X709205Y154301D01*
X709205Y147099D01*
X706448Y140445D01*
X701355Y135352D01*
X694701Y132595D01*
X687499Y132595D01*
G37*
%LPD*%
%LPC*%
G36*
X1228508Y825775D02*
X1228508Y825775D01*
X1224089Y827606D01*
X1220706Y830989D01*
X1218875Y835408D01*
X1218875Y840192D01*
X1220706Y844611D01*
X1224089Y847994D01*
X1228508Y849825D01*
X1233292Y849825D01*
X1237711Y847994D01*
X1241094Y844611D01*
X1242925Y840192D01*
X1242925Y835408D01*
X1241094Y830989D01*
X1237711Y827606D01*
X1233292Y825775D01*
X1228508Y825775D01*
G37*
%LPD*%
%LPC*%
G36*
X1103508Y825775D02*
X1103508Y825775D01*
X1099089Y827606D01*
X1095706Y830989D01*
X1093875Y835408D01*
X1093875Y840192D01*
X1095706Y844611D01*
X1099089Y847994D01*
X1103508Y849825D01*
X1108292Y849825D01*
X1112711Y847994D01*
X1116094Y844611D01*
X1117925Y840192D01*
X1117925Y835408D01*
X1116094Y830989D01*
X1112711Y827606D01*
X1108292Y825775D01*
X1103508Y825775D01*
G37*
%LPD*%
%LPC*%
G36*
X1103508Y393975D02*
X1103508Y393975D01*
X1099089Y395806D01*
X1095706Y399189D01*
X1093875Y403608D01*
X1093875Y408392D01*
X1095706Y412811D01*
X1099089Y416194D01*
X1103508Y418025D01*
X1108292Y418025D01*
X1112711Y416194D01*
X1116094Y412811D01*
X1117925Y408392D01*
X1117925Y403608D01*
X1116094Y399189D01*
X1112711Y395806D01*
X1108292Y393975D01*
X1103508Y393975D01*
G37*
%LPD*%
%LPC*%
G36*
X1228508Y393975D02*
X1228508Y393975D01*
X1224089Y395806D01*
X1220706Y399189D01*
X1218875Y403608D01*
X1218875Y408392D01*
X1220706Y412811D01*
X1224089Y416194D01*
X1228508Y418025D01*
X1233292Y418025D01*
X1237711Y416194D01*
X1241094Y412811D01*
X1242925Y408392D01*
X1242925Y403608D01*
X1241094Y399189D01*
X1237711Y395806D01*
X1233292Y393975D01*
X1228508Y393975D01*
G37*
%LPD*%
%LPC*%
G36*
X1014197Y829135D02*
X1014197Y829135D01*
X1010865Y830515D01*
X1008315Y833065D01*
X1006935Y836397D01*
X1006935Y840003D01*
X1008315Y843335D01*
X1010865Y845885D01*
X1014197Y847265D01*
X1017803Y847265D01*
X1021135Y845885D01*
X1023685Y843335D01*
X1025065Y840003D01*
X1025065Y836397D01*
X1023685Y833065D01*
X1021135Y830515D01*
X1017803Y829135D01*
X1014197Y829135D01*
G37*
%LPD*%
%LPC*%
G36*
X1014197Y803735D02*
X1014197Y803735D01*
X1010865Y805115D01*
X1008315Y807665D01*
X1006935Y810997D01*
X1006935Y814603D01*
X1008315Y817935D01*
X1010865Y820485D01*
X1014197Y821865D01*
X1017803Y821865D01*
X1021135Y820485D01*
X1023685Y817935D01*
X1025065Y814603D01*
X1025065Y810997D01*
X1023685Y807665D01*
X1021135Y805115D01*
X1017803Y803735D01*
X1014197Y803735D01*
G37*
%LPD*%
%LPC*%
G36*
X1014197Y778335D02*
X1014197Y778335D01*
X1010865Y779715D01*
X1008315Y782265D01*
X1006935Y785597D01*
X1006935Y789203D01*
X1008315Y792535D01*
X1010865Y795085D01*
X1014197Y796465D01*
X1017803Y796465D01*
X1021135Y795085D01*
X1023685Y792535D01*
X1025065Y789203D01*
X1025065Y785597D01*
X1023685Y782265D01*
X1021135Y779715D01*
X1017803Y778335D01*
X1014197Y778335D01*
G37*
%LPD*%
%LPC*%
G36*
X1014197Y448135D02*
X1014197Y448135D01*
X1010865Y449515D01*
X1008315Y452065D01*
X1006935Y455397D01*
X1006935Y459003D01*
X1008315Y462335D01*
X1010865Y464885D01*
X1014197Y466265D01*
X1017803Y466265D01*
X1021135Y464885D01*
X1023685Y462335D01*
X1025065Y459003D01*
X1025065Y455397D01*
X1023685Y452065D01*
X1021135Y449515D01*
X1017803Y448135D01*
X1014197Y448135D01*
G37*
%LPD*%
%LPC*%
G36*
X1014197Y422735D02*
X1014197Y422735D01*
X1010865Y424115D01*
X1008315Y426665D01*
X1006935Y429997D01*
X1006935Y433603D01*
X1008315Y436935D01*
X1010865Y439485D01*
X1014197Y440865D01*
X1017803Y440865D01*
X1021135Y439485D01*
X1023685Y436935D01*
X1025065Y433603D01*
X1025065Y429997D01*
X1023685Y426665D01*
X1021135Y424115D01*
X1017803Y422735D01*
X1014197Y422735D01*
G37*
%LPD*%
%LPC*%
G36*
X1014197Y752935D02*
X1014197Y752935D01*
X1010865Y754315D01*
X1008315Y756865D01*
X1006935Y760197D01*
X1006935Y763803D01*
X1008315Y767135D01*
X1010865Y769685D01*
X1014197Y771065D01*
X1017803Y771065D01*
X1021135Y769685D01*
X1023685Y767135D01*
X1025065Y763803D01*
X1025065Y760197D01*
X1023685Y756865D01*
X1021135Y754315D01*
X1017803Y752935D01*
X1014197Y752935D01*
G37*
%LPD*%
%LPC*%
G36*
X1014197Y727535D02*
X1014197Y727535D01*
X1010865Y728915D01*
X1008315Y731465D01*
X1006935Y734797D01*
X1006935Y738403D01*
X1008315Y741735D01*
X1010865Y744285D01*
X1014197Y745665D01*
X1017803Y745665D01*
X1021135Y744285D01*
X1023685Y741735D01*
X1025065Y738403D01*
X1025065Y734797D01*
X1023685Y731465D01*
X1021135Y728915D01*
X1017803Y727535D01*
X1014197Y727535D01*
G37*
%LPD*%
%LPC*%
G36*
X1014197Y498935D02*
X1014197Y498935D01*
X1010865Y500315D01*
X1008315Y502865D01*
X1006935Y506197D01*
X1006935Y509803D01*
X1008315Y513135D01*
X1010865Y515685D01*
X1014197Y517065D01*
X1017803Y517065D01*
X1021135Y515685D01*
X1023685Y513135D01*
X1025065Y509803D01*
X1025065Y506197D01*
X1023685Y502865D01*
X1021135Y500315D01*
X1017803Y498935D01*
X1014197Y498935D01*
G37*
%LPD*%
%LPC*%
G36*
X1014197Y524335D02*
X1014197Y524335D01*
X1010865Y525715D01*
X1008315Y528265D01*
X1006935Y531597D01*
X1006935Y535203D01*
X1008315Y538535D01*
X1010865Y541085D01*
X1014197Y542465D01*
X1017803Y542465D01*
X1021135Y541085D01*
X1023685Y538535D01*
X1025065Y535203D01*
X1025065Y531597D01*
X1023685Y528265D01*
X1021135Y525715D01*
X1017803Y524335D01*
X1014197Y524335D01*
G37*
%LPD*%
%LPC*%
G36*
X1014197Y676735D02*
X1014197Y676735D01*
X1010865Y678115D01*
X1008315Y680665D01*
X1006935Y683997D01*
X1006935Y687603D01*
X1008315Y690935D01*
X1010865Y693485D01*
X1014197Y694865D01*
X1017803Y694865D01*
X1021135Y693485D01*
X1023685Y690935D01*
X1025065Y687603D01*
X1025065Y683997D01*
X1023685Y680665D01*
X1021135Y678115D01*
X1017803Y676735D01*
X1014197Y676735D01*
G37*
%LPD*%
%LPC*%
G36*
X1014197Y651335D02*
X1014197Y651335D01*
X1010865Y652715D01*
X1008315Y655265D01*
X1006935Y658597D01*
X1006935Y662203D01*
X1008315Y665535D01*
X1010865Y668085D01*
X1014197Y669465D01*
X1017803Y669465D01*
X1021135Y668085D01*
X1023685Y665535D01*
X1025065Y662203D01*
X1025065Y658597D01*
X1023685Y655265D01*
X1021135Y652715D01*
X1017803Y651335D01*
X1014197Y651335D01*
G37*
%LPD*%
%LPC*%
G36*
X1014197Y625935D02*
X1014197Y625935D01*
X1010865Y627315D01*
X1008315Y629865D01*
X1006935Y633197D01*
X1006935Y636803D01*
X1008315Y640135D01*
X1010865Y642685D01*
X1014197Y644065D01*
X1017803Y644065D01*
X1021135Y642685D01*
X1023685Y640135D01*
X1025065Y636803D01*
X1025065Y633197D01*
X1023685Y629865D01*
X1021135Y627315D01*
X1017803Y625935D01*
X1014197Y625935D01*
G37*
%LPD*%
%LPC*%
G36*
X1014197Y549735D02*
X1014197Y549735D01*
X1010865Y551115D01*
X1008315Y553665D01*
X1006935Y556997D01*
X1006935Y560603D01*
X1008315Y563935D01*
X1010865Y566485D01*
X1014197Y567865D01*
X1017803Y567865D01*
X1021135Y566485D01*
X1023685Y563935D01*
X1025065Y560603D01*
X1025065Y556997D01*
X1023685Y553665D01*
X1021135Y551115D01*
X1017803Y549735D01*
X1014197Y549735D01*
G37*
%LPD*%
%LPC*%
G36*
X1014197Y702135D02*
X1014197Y702135D01*
X1010865Y703515D01*
X1008315Y706065D01*
X1006935Y709397D01*
X1006935Y713003D01*
X1008315Y716335D01*
X1010865Y718885D01*
X1014197Y720265D01*
X1017803Y720265D01*
X1021135Y718885D01*
X1023685Y716335D01*
X1025065Y713003D01*
X1025065Y709397D01*
X1023685Y706065D01*
X1021135Y703515D01*
X1017803Y702135D01*
X1014197Y702135D01*
G37*
%LPD*%
%LPC*%
G36*
X1014197Y473535D02*
X1014197Y473535D01*
X1010865Y474915D01*
X1008315Y477465D01*
X1006935Y480797D01*
X1006935Y484403D01*
X1008315Y487735D01*
X1010865Y490285D01*
X1014197Y491665D01*
X1017803Y491665D01*
X1021135Y490285D01*
X1023685Y487735D01*
X1025065Y484403D01*
X1025065Y480797D01*
X1023685Y477465D01*
X1021135Y474915D01*
X1017803Y473535D01*
X1014197Y473535D01*
G37*
%LPD*%
%LPC*%
G36*
X1014197Y600535D02*
X1014197Y600535D01*
X1010865Y601915D01*
X1008315Y604465D01*
X1006935Y607797D01*
X1006935Y611403D01*
X1008315Y614735D01*
X1010865Y617285D01*
X1014197Y618665D01*
X1017803Y618665D01*
X1021135Y617285D01*
X1023685Y614735D01*
X1025065Y611403D01*
X1025065Y607797D01*
X1023685Y604465D01*
X1021135Y601915D01*
X1017803Y600535D01*
X1014197Y600535D01*
G37*
%LPD*%
%LPC*%
G36*
X1014197Y575135D02*
X1014197Y575135D01*
X1010865Y576515D01*
X1008315Y579065D01*
X1006935Y582397D01*
X1006935Y586003D01*
X1008315Y589335D01*
X1010865Y591885D01*
X1014197Y593265D01*
X1017803Y593265D01*
X1021135Y591885D01*
X1023685Y589335D01*
X1025065Y586003D01*
X1025065Y582397D01*
X1023685Y579065D01*
X1021135Y576515D01*
X1017803Y575135D01*
X1014197Y575135D01*
G37*
%LPD*%
%LPC*%
G36*
X1115797Y156035D02*
X1115797Y156035D01*
X1112465Y157415D01*
X1109915Y159965D01*
X1108535Y163297D01*
X1108535Y166903D01*
X1109915Y170235D01*
X1112465Y172785D01*
X1115797Y174165D01*
X1119403Y174165D01*
X1122735Y172785D01*
X1125285Y170235D01*
X1126665Y166903D01*
X1126665Y163297D01*
X1125285Y159965D01*
X1122735Y157415D01*
X1119403Y156035D01*
X1115797Y156035D01*
G37*
%LPD*%
%LPC*%
G36*
X1090797Y156035D02*
X1090797Y156035D01*
X1087465Y157415D01*
X1084915Y159965D01*
X1083535Y163297D01*
X1083535Y166903D01*
X1084915Y170235D01*
X1087465Y172785D01*
X1090797Y174165D01*
X1094403Y174165D01*
X1097735Y172785D01*
X1100285Y170235D01*
X1101665Y166903D01*
X1101665Y163297D01*
X1100285Y159965D01*
X1097735Y157415D01*
X1094403Y156035D01*
X1090797Y156035D01*
G37*
%LPD*%
%LPC*%
G36*
X175597Y156035D02*
X175597Y156035D01*
X172265Y157415D01*
X169715Y159965D01*
X168335Y163297D01*
X168335Y166903D01*
X169715Y170235D01*
X172265Y172785D01*
X175597Y174165D01*
X179203Y174165D01*
X182535Y172785D01*
X185085Y170235D01*
X186465Y166903D01*
X186465Y163297D01*
X185085Y159965D01*
X182535Y157415D01*
X179203Y156035D01*
X175597Y156035D01*
G37*
%LPD*%
%LPC*%
G36*
X150597Y156035D02*
X150597Y156035D01*
X147265Y157415D01*
X144715Y159965D01*
X143335Y163297D01*
X143335Y166903D01*
X144715Y170235D01*
X147265Y172785D01*
X150597Y174165D01*
X154203Y174165D01*
X157535Y172785D01*
X160085Y170235D01*
X161465Y166903D01*
X161465Y163297D01*
X160085Y159965D01*
X157535Y157415D01*
X154203Y156035D01*
X150597Y156035D01*
G37*
%LPD*%
%LPC*%
G36*
X1140797Y156035D02*
X1140797Y156035D01*
X1137465Y157415D01*
X1134915Y159965D01*
X1133535Y163297D01*
X1133535Y166903D01*
X1134915Y170235D01*
X1137465Y172785D01*
X1140797Y174165D01*
X1144403Y174165D01*
X1147735Y172785D01*
X1150285Y170235D01*
X1151665Y166903D01*
X1151665Y163297D01*
X1150285Y159965D01*
X1147735Y157415D01*
X1144403Y156035D01*
X1140797Y156035D01*
G37*
%LPD*%
%LPC*%
G36*
X1014197Y879935D02*
X1014197Y879935D01*
X1010865Y881315D01*
X1008315Y883865D01*
X1006935Y887197D01*
X1006935Y890803D01*
X1008315Y894135D01*
X1010865Y896685D01*
X1014197Y898065D01*
X1017803Y898065D01*
X1021135Y896685D01*
X1023685Y894135D01*
X1025065Y890803D01*
X1025065Y887197D01*
X1023685Y883865D01*
X1021135Y881315D01*
X1017803Y879935D01*
X1014197Y879935D01*
G37*
%LPD*%
%LPC*%
G36*
X1014197Y854535D02*
X1014197Y854535D01*
X1010865Y855915D01*
X1008315Y858465D01*
X1006935Y861797D01*
X1006935Y865403D01*
X1008315Y868735D01*
X1010865Y871285D01*
X1014197Y872665D01*
X1017803Y872665D01*
X1021135Y871285D01*
X1023685Y868735D01*
X1025065Y865403D01*
X1025065Y861797D01*
X1023685Y858465D01*
X1021135Y855915D01*
X1017803Y854535D01*
X1014197Y854535D01*
G37*
%LPD*%
%LPC*%
G36*
X125597Y156035D02*
X125597Y156035D01*
X122265Y157415D01*
X119715Y159965D01*
X118335Y163297D01*
X118335Y166903D01*
X119715Y170235D01*
X122265Y172785D01*
X125597Y174165D01*
X129203Y174165D01*
X132535Y172785D01*
X135085Y170235D01*
X136465Y166903D01*
X136465Y163297D01*
X135085Y159965D01*
X132535Y157415D01*
X129203Y156035D01*
X125597Y156035D01*
G37*
%LPD*%
%LPC*%
G36*
X588676Y169135D02*
X588676Y169135D01*
X585492Y170454D01*
X583054Y172892D01*
X581735Y176076D01*
X581735Y179524D01*
X583054Y182708D01*
X585492Y185146D01*
X588676Y186465D01*
X592124Y186465D01*
X595308Y185146D01*
X597746Y182708D01*
X599065Y179524D01*
X599065Y176076D01*
X597746Y172892D01*
X595308Y170454D01*
X592124Y169135D01*
X588676Y169135D01*
G37*
%LPD*%
%LPC*%
G36*
X633676Y169135D02*
X633676Y169135D01*
X630492Y170454D01*
X628054Y172892D01*
X626735Y176076D01*
X626735Y179524D01*
X628054Y182708D01*
X630492Y185146D01*
X633676Y186465D01*
X637124Y186465D01*
X640308Y185146D01*
X642746Y182708D01*
X644065Y179524D01*
X644065Y176076D01*
X642746Y172892D01*
X640308Y170454D01*
X637124Y169135D01*
X633676Y169135D01*
G37*
%LPD*%
%LPC*%
G36*
X658676Y169135D02*
X658676Y169135D01*
X655492Y170454D01*
X653054Y172892D01*
X651735Y176076D01*
X651735Y179524D01*
X653054Y182708D01*
X655492Y185146D01*
X658676Y186465D01*
X662124Y186465D01*
X665308Y185146D01*
X667746Y182708D01*
X669065Y179524D01*
X669065Y176076D01*
X667746Y172892D01*
X665308Y170454D01*
X662124Y169135D01*
X658676Y169135D01*
G37*
%LPD*%
%LPC*%
G36*
X613676Y169135D02*
X613676Y169135D01*
X610492Y170454D01*
X608054Y172892D01*
X606735Y176076D01*
X606735Y179524D01*
X608054Y182708D01*
X610492Y185146D01*
X613676Y186465D01*
X617124Y186465D01*
X620308Y185146D01*
X622746Y182708D01*
X624065Y179524D01*
X624065Y176076D01*
X622746Y172892D01*
X620308Y170454D01*
X617124Y169135D01*
X613676Y169135D01*
G37*
%LPD*%
%LPC*%
G36*
X625007Y725290D02*
X625007Y725290D01*
X621880Y726586D01*
X619486Y728980D01*
X618190Y732107D01*
X618190Y735493D01*
X619486Y738620D01*
X621880Y741014D01*
X625007Y742310D01*
X628393Y742310D01*
X631520Y741014D01*
X633914Y738620D01*
X635210Y735493D01*
X635210Y732107D01*
X633914Y728980D01*
X631520Y726586D01*
X628393Y725290D01*
X625007Y725290D01*
G37*
%LPD*%
%LPC*%
G36*
X574207Y725290D02*
X574207Y725290D01*
X571080Y726586D01*
X568686Y728980D01*
X567390Y732107D01*
X567390Y735493D01*
X568686Y738620D01*
X571080Y741014D01*
X574207Y742310D01*
X577593Y742310D01*
X580720Y741014D01*
X583114Y738620D01*
X584410Y735493D01*
X584410Y732107D01*
X583114Y728980D01*
X580720Y726586D01*
X577593Y725290D01*
X574207Y725290D01*
G37*
%LPD*%
%LPC*%
G36*
X548807Y725290D02*
X548807Y725290D01*
X545680Y726586D01*
X543286Y728980D01*
X541990Y732107D01*
X541990Y735493D01*
X543286Y738620D01*
X545680Y741014D01*
X548807Y742310D01*
X552193Y742310D01*
X555320Y741014D01*
X557714Y738620D01*
X559010Y735493D01*
X559010Y732107D01*
X557714Y728980D01*
X555320Y726586D01*
X552193Y725290D01*
X548807Y725290D01*
G37*
%LPD*%
%LPC*%
G36*
X523407Y725290D02*
X523407Y725290D01*
X520280Y726586D01*
X517886Y728980D01*
X516590Y732107D01*
X516590Y735493D01*
X517886Y738620D01*
X520280Y741014D01*
X523407Y742310D01*
X526793Y742310D01*
X529920Y741014D01*
X532314Y738620D01*
X533610Y735493D01*
X533610Y732107D01*
X532314Y728980D01*
X529920Y726586D01*
X526793Y725290D01*
X523407Y725290D01*
G37*
%LPD*%
%LPC*%
G36*
X498007Y725290D02*
X498007Y725290D01*
X494880Y726586D01*
X492486Y728980D01*
X491190Y732107D01*
X491190Y735493D01*
X492486Y738620D01*
X494880Y741014D01*
X498007Y742310D01*
X501393Y742310D01*
X504520Y741014D01*
X506914Y738620D01*
X508210Y735493D01*
X508210Y732107D01*
X506914Y728980D01*
X504520Y726586D01*
X501393Y725290D01*
X498007Y725290D01*
G37*
%LPD*%
%LPC*%
G36*
X472607Y725290D02*
X472607Y725290D01*
X469480Y726586D01*
X467086Y728980D01*
X465790Y732107D01*
X465790Y735493D01*
X467086Y738620D01*
X469480Y741014D01*
X472607Y742310D01*
X475993Y742310D01*
X479120Y741014D01*
X481514Y738620D01*
X482810Y735493D01*
X482810Y732107D01*
X481514Y728980D01*
X479120Y726586D01*
X475993Y725290D01*
X472607Y725290D01*
G37*
%LPD*%
%LPC*%
G36*
X447207Y725290D02*
X447207Y725290D01*
X444080Y726586D01*
X441686Y728980D01*
X440390Y732107D01*
X440390Y735493D01*
X441686Y738620D01*
X444080Y741014D01*
X447207Y742310D01*
X450593Y742310D01*
X453720Y741014D01*
X456114Y738620D01*
X457410Y735493D01*
X457410Y732107D01*
X456114Y728980D01*
X453720Y726586D01*
X450593Y725290D01*
X447207Y725290D01*
G37*
%LPD*%
%LPC*%
G36*
X498007Y699890D02*
X498007Y699890D01*
X494880Y701186D01*
X492486Y703580D01*
X491190Y706707D01*
X491190Y710093D01*
X492486Y713220D01*
X494880Y715614D01*
X498007Y716910D01*
X501393Y716910D01*
X504520Y715614D01*
X506914Y713220D01*
X508210Y710093D01*
X508210Y706707D01*
X506914Y703580D01*
X504520Y701186D01*
X501393Y699890D01*
X498007Y699890D01*
G37*
%LPD*%
%LPC*%
G36*
X472607Y699890D02*
X472607Y699890D01*
X469480Y701186D01*
X467086Y703580D01*
X465790Y706707D01*
X465790Y710093D01*
X467086Y713220D01*
X469480Y715614D01*
X472607Y716910D01*
X475993Y716910D01*
X479120Y715614D01*
X481514Y713220D01*
X482810Y710093D01*
X482810Y706707D01*
X481514Y703580D01*
X479120Y701186D01*
X475993Y699890D01*
X472607Y699890D01*
G37*
%LPD*%
%LPC*%
G36*
X828207Y699890D02*
X828207Y699890D01*
X825080Y701186D01*
X822686Y703580D01*
X821390Y706707D01*
X821390Y710093D01*
X822686Y713220D01*
X825080Y715614D01*
X828207Y716910D01*
X831593Y716910D01*
X834720Y715614D01*
X837114Y713220D01*
X838410Y710093D01*
X838410Y706707D01*
X837114Y703580D01*
X834720Y701186D01*
X831593Y699890D01*
X828207Y699890D01*
G37*
%LPD*%
%LPC*%
G36*
X802807Y699890D02*
X802807Y699890D01*
X799680Y701186D01*
X797286Y703580D01*
X795990Y706707D01*
X795990Y710093D01*
X797286Y713220D01*
X799680Y715614D01*
X802807Y716910D01*
X806193Y716910D01*
X809320Y715614D01*
X811714Y713220D01*
X813010Y710093D01*
X813010Y706707D01*
X811714Y703580D01*
X809320Y701186D01*
X806193Y699890D01*
X802807Y699890D01*
G37*
%LPD*%
%LPC*%
G36*
X777407Y699890D02*
X777407Y699890D01*
X774280Y701186D01*
X771886Y703580D01*
X770590Y706707D01*
X770590Y710093D01*
X771886Y713220D01*
X774280Y715614D01*
X777407Y716910D01*
X780793Y716910D01*
X783920Y715614D01*
X786314Y713220D01*
X787610Y710093D01*
X787610Y706707D01*
X786314Y703580D01*
X783920Y701186D01*
X780793Y699890D01*
X777407Y699890D01*
G37*
%LPD*%
%LPC*%
G36*
X752007Y699890D02*
X752007Y699890D01*
X748880Y701186D01*
X746486Y703580D01*
X745190Y706707D01*
X745190Y710093D01*
X746486Y713220D01*
X748880Y715614D01*
X752007Y716910D01*
X755393Y716910D01*
X758520Y715614D01*
X760914Y713220D01*
X762210Y710093D01*
X762210Y706707D01*
X760914Y703580D01*
X758520Y701186D01*
X755393Y699890D01*
X752007Y699890D01*
G37*
%LPD*%
%LPC*%
G36*
X726607Y699890D02*
X726607Y699890D01*
X723480Y701186D01*
X721086Y703580D01*
X719790Y706707D01*
X719790Y710093D01*
X721086Y713220D01*
X723480Y715614D01*
X726607Y716910D01*
X729993Y716910D01*
X733120Y715614D01*
X735514Y713220D01*
X736810Y710093D01*
X736810Y706707D01*
X735514Y703580D01*
X733120Y701186D01*
X729993Y699890D01*
X726607Y699890D01*
G37*
%LPD*%
%LPC*%
G36*
X675807Y699890D02*
X675807Y699890D01*
X672680Y701186D01*
X670286Y703580D01*
X668990Y706707D01*
X668990Y710093D01*
X670286Y713220D01*
X672680Y715614D01*
X675807Y716910D01*
X679193Y716910D01*
X682320Y715614D01*
X684714Y713220D01*
X686010Y710093D01*
X686010Y706707D01*
X684714Y703580D01*
X682320Y701186D01*
X679193Y699890D01*
X675807Y699890D01*
G37*
%LPD*%
%LPC*%
G36*
X650407Y699890D02*
X650407Y699890D01*
X647280Y701186D01*
X644886Y703580D01*
X643590Y706707D01*
X643590Y710093D01*
X644886Y713220D01*
X647280Y715614D01*
X650407Y716910D01*
X653793Y716910D01*
X656920Y715614D01*
X659314Y713220D01*
X660610Y710093D01*
X660610Y706707D01*
X659314Y703580D01*
X656920Y701186D01*
X653793Y699890D01*
X650407Y699890D01*
G37*
%LPD*%
%LPC*%
G36*
X625007Y699890D02*
X625007Y699890D01*
X621880Y701186D01*
X619486Y703580D01*
X618190Y706707D01*
X618190Y710093D01*
X619486Y713220D01*
X621880Y715614D01*
X625007Y716910D01*
X628393Y716910D01*
X631520Y715614D01*
X633914Y713220D01*
X635210Y710093D01*
X635210Y706707D01*
X633914Y703580D01*
X631520Y701186D01*
X628393Y699890D01*
X625007Y699890D01*
G37*
%LPD*%
%LPC*%
G36*
X599607Y699890D02*
X599607Y699890D01*
X596480Y701186D01*
X594086Y703580D01*
X592790Y706707D01*
X592790Y710093D01*
X594086Y713220D01*
X596480Y715614D01*
X599607Y716910D01*
X602993Y716910D01*
X606120Y715614D01*
X608514Y713220D01*
X609810Y710093D01*
X609810Y706707D01*
X608514Y703580D01*
X606120Y701186D01*
X602993Y699890D01*
X599607Y699890D01*
G37*
%LPD*%
%LPC*%
G36*
X548807Y699890D02*
X548807Y699890D01*
X545680Y701186D01*
X543286Y703580D01*
X541990Y706707D01*
X541990Y710093D01*
X543286Y713220D01*
X545680Y715614D01*
X548807Y716910D01*
X552193Y716910D01*
X555320Y715614D01*
X557714Y713220D01*
X559010Y710093D01*
X559010Y706707D01*
X557714Y703580D01*
X555320Y701186D01*
X552193Y699890D01*
X548807Y699890D01*
G37*
%LPD*%
%LPC*%
G36*
X523407Y699890D02*
X523407Y699890D01*
X520280Y701186D01*
X517886Y703580D01*
X516590Y706707D01*
X516590Y710093D01*
X517886Y713220D01*
X520280Y715614D01*
X523407Y716910D01*
X526793Y716910D01*
X529920Y715614D01*
X532314Y713220D01*
X533610Y710093D01*
X533610Y706707D01*
X532314Y703580D01*
X529920Y701186D01*
X526793Y699890D01*
X523407Y699890D01*
G37*
%LPD*%
%LPC*%
G36*
X447207Y699890D02*
X447207Y699890D01*
X444080Y701186D01*
X441686Y703580D01*
X440390Y706707D01*
X440390Y710093D01*
X441686Y713220D01*
X444080Y715614D01*
X447207Y716910D01*
X450593Y716910D01*
X453720Y715614D01*
X456114Y713220D01*
X457410Y710093D01*
X457410Y706707D01*
X456114Y703580D01*
X453720Y701186D01*
X450593Y699890D01*
X447207Y699890D01*
G37*
%LPD*%
%LPC*%
G36*
X421807Y699890D02*
X421807Y699890D01*
X418680Y701186D01*
X416286Y703580D01*
X414990Y706707D01*
X414990Y710093D01*
X416286Y713220D01*
X418680Y715614D01*
X421807Y716910D01*
X425193Y716910D01*
X428320Y715614D01*
X430714Y713220D01*
X432010Y710093D01*
X432010Y706707D01*
X430714Y703580D01*
X428320Y701186D01*
X425193Y699890D01*
X421807Y699890D01*
G37*
%LPD*%
%LPC*%
G36*
X396407Y699890D02*
X396407Y699890D01*
X393280Y701186D01*
X390886Y703580D01*
X389590Y706707D01*
X389590Y710093D01*
X390886Y713220D01*
X393280Y715614D01*
X396407Y716910D01*
X399793Y716910D01*
X402920Y715614D01*
X405314Y713220D01*
X406610Y710093D01*
X406610Y706707D01*
X405314Y703580D01*
X402920Y701186D01*
X399793Y699890D01*
X396407Y699890D01*
G37*
%LPD*%
%LPC*%
G36*
X701207Y699890D02*
X701207Y699890D01*
X698080Y701186D01*
X695686Y703580D01*
X694390Y706707D01*
X694390Y710093D01*
X695686Y713220D01*
X698080Y715614D01*
X701207Y716910D01*
X704593Y716910D01*
X707720Y715614D01*
X710114Y713220D01*
X711410Y710093D01*
X711410Y706707D01*
X710114Y703580D01*
X707720Y701186D01*
X704593Y699890D01*
X701207Y699890D01*
G37*
%LPD*%
%LPC*%
G36*
X625007Y471290D02*
X625007Y471290D01*
X621880Y472586D01*
X619486Y474980D01*
X618190Y478107D01*
X618190Y481493D01*
X619486Y484620D01*
X621880Y487014D01*
X625007Y488310D01*
X628393Y488310D01*
X631520Y487014D01*
X633914Y484620D01*
X635210Y481493D01*
X635210Y478107D01*
X633914Y474980D01*
X631520Y472586D01*
X628393Y471290D01*
X625007Y471290D01*
G37*
%LPD*%
%LPC*%
G36*
X548807Y471290D02*
X548807Y471290D01*
X545680Y472586D01*
X543286Y474980D01*
X541990Y478107D01*
X541990Y481493D01*
X543286Y484620D01*
X545680Y487014D01*
X548807Y488310D01*
X552193Y488310D01*
X555320Y487014D01*
X557714Y484620D01*
X559010Y481493D01*
X559010Y478107D01*
X557714Y474980D01*
X555320Y472586D01*
X552193Y471290D01*
X548807Y471290D01*
G37*
%LPD*%
%LPC*%
G36*
X523407Y471290D02*
X523407Y471290D01*
X520280Y472586D01*
X517886Y474980D01*
X516590Y478107D01*
X516590Y481493D01*
X517886Y484620D01*
X520280Y487014D01*
X523407Y488310D01*
X526793Y488310D01*
X529920Y487014D01*
X532314Y484620D01*
X533610Y481493D01*
X533610Y478107D01*
X532314Y474980D01*
X529920Y472586D01*
X526793Y471290D01*
X523407Y471290D01*
G37*
%LPD*%
%LPC*%
G36*
X498007Y471290D02*
X498007Y471290D01*
X494880Y472586D01*
X492486Y474980D01*
X491190Y478107D01*
X491190Y481493D01*
X492486Y484620D01*
X494880Y487014D01*
X498007Y488310D01*
X501393Y488310D01*
X504520Y487014D01*
X506914Y484620D01*
X508210Y481493D01*
X508210Y478107D01*
X506914Y474980D01*
X504520Y472586D01*
X501393Y471290D01*
X498007Y471290D01*
G37*
%LPD*%
%LPC*%
G36*
X421807Y471290D02*
X421807Y471290D01*
X418680Y472586D01*
X416286Y474980D01*
X414990Y478107D01*
X414990Y481493D01*
X416286Y484620D01*
X418680Y487014D01*
X421807Y488310D01*
X425193Y488310D01*
X428320Y487014D01*
X430714Y484620D01*
X432010Y481493D01*
X432010Y478107D01*
X430714Y474980D01*
X428320Y472586D01*
X425193Y471290D01*
X421807Y471290D01*
G37*
%LPD*%
%LPC*%
G36*
X472607Y471290D02*
X472607Y471290D01*
X469480Y472586D01*
X467086Y474980D01*
X465790Y478107D01*
X465790Y481493D01*
X467086Y484620D01*
X469480Y487014D01*
X472607Y488310D01*
X475993Y488310D01*
X479120Y487014D01*
X481514Y484620D01*
X482810Y481493D01*
X482810Y478107D01*
X481514Y474980D01*
X479120Y472586D01*
X475993Y471290D01*
X472607Y471290D01*
G37*
%LPD*%
%LPC*%
G36*
X447207Y471290D02*
X447207Y471290D01*
X444080Y472586D01*
X441686Y474980D01*
X440390Y478107D01*
X440390Y481493D01*
X441686Y484620D01*
X444080Y487014D01*
X447207Y488310D01*
X450593Y488310D01*
X453720Y487014D01*
X456114Y484620D01*
X457410Y481493D01*
X457410Y478107D01*
X456114Y474980D01*
X453720Y472586D01*
X450593Y471290D01*
X447207Y471290D01*
G37*
%LPD*%
%LPC*%
G36*
X396407Y471290D02*
X396407Y471290D01*
X393280Y472586D01*
X390886Y474980D01*
X389590Y478107D01*
X389590Y481493D01*
X390886Y484620D01*
X393280Y487014D01*
X396407Y488310D01*
X399793Y488310D01*
X402920Y487014D01*
X405314Y484620D01*
X406610Y481493D01*
X406610Y478107D01*
X405314Y474980D01*
X402920Y472586D01*
X399793Y471290D01*
X396407Y471290D01*
G37*
%LPD*%
%LPC*%
G36*
X599607Y471290D02*
X599607Y471290D01*
X596480Y472586D01*
X594086Y474980D01*
X592790Y478107D01*
X592790Y481493D01*
X594086Y484620D01*
X596480Y487014D01*
X599607Y488310D01*
X602993Y488310D01*
X606120Y487014D01*
X608514Y484620D01*
X609810Y481493D01*
X609810Y478107D01*
X608514Y474980D01*
X606120Y472586D01*
X602993Y471290D01*
X599607Y471290D01*
G37*
%LPD*%
%LPC*%
G36*
X650407Y471290D02*
X650407Y471290D01*
X647280Y472586D01*
X644886Y474980D01*
X643590Y478107D01*
X643590Y481493D01*
X644886Y484620D01*
X647280Y487014D01*
X650407Y488310D01*
X653793Y488310D01*
X656920Y487014D01*
X659314Y484620D01*
X660610Y481493D01*
X660610Y478107D01*
X659314Y474980D01*
X656920Y472586D01*
X653793Y471290D01*
X650407Y471290D01*
G37*
%LPD*%
%LPC*%
G36*
X625007Y445890D02*
X625007Y445890D01*
X621880Y447186D01*
X619486Y449580D01*
X618190Y452707D01*
X618190Y456093D01*
X619486Y459220D01*
X621880Y461614D01*
X625007Y462910D01*
X628393Y462910D01*
X631520Y461614D01*
X633914Y459220D01*
X635210Y456093D01*
X635210Y452707D01*
X633914Y449580D01*
X631520Y447186D01*
X628393Y445890D01*
X625007Y445890D01*
G37*
%LPD*%
%LPC*%
G36*
X599607Y445890D02*
X599607Y445890D01*
X596480Y447186D01*
X594086Y449580D01*
X592790Y452707D01*
X592790Y456093D01*
X594086Y459220D01*
X596480Y461614D01*
X599607Y462910D01*
X602993Y462910D01*
X606120Y461614D01*
X608514Y459220D01*
X609810Y456093D01*
X609810Y452707D01*
X608514Y449580D01*
X606120Y447186D01*
X602993Y445890D01*
X599607Y445890D01*
G37*
%LPD*%
%LPC*%
G36*
X574207Y445890D02*
X574207Y445890D01*
X571080Y447186D01*
X568686Y449580D01*
X567390Y452707D01*
X567390Y456093D01*
X568686Y459220D01*
X571080Y461614D01*
X574207Y462910D01*
X577593Y462910D01*
X580720Y461614D01*
X583114Y459220D01*
X584410Y456093D01*
X584410Y452707D01*
X583114Y449580D01*
X580720Y447186D01*
X577593Y445890D01*
X574207Y445890D01*
G37*
%LPD*%
%LPC*%
G36*
X548807Y445890D02*
X548807Y445890D01*
X545680Y447186D01*
X543286Y449580D01*
X541990Y452707D01*
X541990Y456093D01*
X543286Y459220D01*
X545680Y461614D01*
X548807Y462910D01*
X552193Y462910D01*
X555320Y461614D01*
X557714Y459220D01*
X559010Y456093D01*
X559010Y452707D01*
X557714Y449580D01*
X555320Y447186D01*
X552193Y445890D01*
X548807Y445890D01*
G37*
%LPD*%
%LPC*%
G36*
X523407Y445890D02*
X523407Y445890D01*
X520280Y447186D01*
X517886Y449580D01*
X516590Y452707D01*
X516590Y456093D01*
X517886Y459220D01*
X520280Y461614D01*
X523407Y462910D01*
X526793Y462910D01*
X529920Y461614D01*
X532314Y459220D01*
X533610Y456093D01*
X533610Y452707D01*
X532314Y449580D01*
X529920Y447186D01*
X526793Y445890D01*
X523407Y445890D01*
G37*
%LPD*%
%LPC*%
G36*
X498007Y445890D02*
X498007Y445890D01*
X494880Y447186D01*
X492486Y449580D01*
X491190Y452707D01*
X491190Y456093D01*
X492486Y459220D01*
X494880Y461614D01*
X498007Y462910D01*
X501393Y462910D01*
X504520Y461614D01*
X506914Y459220D01*
X508210Y456093D01*
X508210Y452707D01*
X506914Y449580D01*
X504520Y447186D01*
X501393Y445890D01*
X498007Y445890D01*
G37*
%LPD*%
%LPC*%
G36*
X472607Y445890D02*
X472607Y445890D01*
X469480Y447186D01*
X467086Y449580D01*
X465790Y452707D01*
X465790Y456093D01*
X467086Y459220D01*
X469480Y461614D01*
X472607Y462910D01*
X475993Y462910D01*
X479120Y461614D01*
X481514Y459220D01*
X482810Y456093D01*
X482810Y452707D01*
X481514Y449580D01*
X479120Y447186D01*
X475993Y445890D01*
X472607Y445890D01*
G37*
%LPD*%
%LPC*%
G36*
X447207Y445890D02*
X447207Y445890D01*
X444080Y447186D01*
X441686Y449580D01*
X440390Y452707D01*
X440390Y456093D01*
X441686Y459220D01*
X444080Y461614D01*
X447207Y462910D01*
X450593Y462910D01*
X453720Y461614D01*
X456114Y459220D01*
X457410Y456093D01*
X457410Y452707D01*
X456114Y449580D01*
X453720Y447186D01*
X450593Y445890D01*
X447207Y445890D01*
G37*
%LPD*%
%LPC*%
G36*
X421807Y445890D02*
X421807Y445890D01*
X418680Y447186D01*
X416286Y449580D01*
X414990Y452707D01*
X414990Y456093D01*
X416286Y459220D01*
X418680Y461614D01*
X421807Y462910D01*
X425193Y462910D01*
X428320Y461614D01*
X430714Y459220D01*
X432010Y456093D01*
X432010Y452707D01*
X430714Y449580D01*
X428320Y447186D01*
X425193Y445890D01*
X421807Y445890D01*
G37*
%LPD*%
%LPC*%
G36*
X396407Y445890D02*
X396407Y445890D01*
X393280Y447186D01*
X390886Y449580D01*
X389590Y452707D01*
X389590Y456093D01*
X390886Y459220D01*
X393280Y461614D01*
X396407Y462910D01*
X399793Y462910D01*
X402920Y461614D01*
X405314Y459220D01*
X406610Y456093D01*
X406610Y452707D01*
X405314Y449580D01*
X402920Y447186D01*
X399793Y445890D01*
X396407Y445890D01*
G37*
%LPD*%
%LPC*%
G36*
X828207Y445890D02*
X828207Y445890D01*
X825080Y447186D01*
X822686Y449580D01*
X821390Y452707D01*
X821390Y456093D01*
X822686Y459220D01*
X825080Y461614D01*
X828207Y462910D01*
X831593Y462910D01*
X834720Y461614D01*
X837114Y459220D01*
X838410Y456093D01*
X838410Y452707D01*
X837114Y449580D01*
X834720Y447186D01*
X831593Y445890D01*
X828207Y445890D01*
G37*
%LPD*%
%LPC*%
G36*
X802807Y445890D02*
X802807Y445890D01*
X799680Y447186D01*
X797286Y449580D01*
X795990Y452707D01*
X795990Y456093D01*
X797286Y459220D01*
X799680Y461614D01*
X802807Y462910D01*
X806193Y462910D01*
X809320Y461614D01*
X811714Y459220D01*
X813010Y456093D01*
X813010Y452707D01*
X811714Y449580D01*
X809320Y447186D01*
X806193Y445890D01*
X802807Y445890D01*
G37*
%LPD*%
%LPC*%
G36*
X777407Y445890D02*
X777407Y445890D01*
X774280Y447186D01*
X771886Y449580D01*
X770590Y452707D01*
X770590Y456093D01*
X771886Y459220D01*
X774280Y461614D01*
X777407Y462910D01*
X780793Y462910D01*
X783920Y461614D01*
X786314Y459220D01*
X787610Y456093D01*
X787610Y452707D01*
X786314Y449580D01*
X783920Y447186D01*
X780793Y445890D01*
X777407Y445890D01*
G37*
%LPD*%
%LPC*%
G36*
X752007Y445890D02*
X752007Y445890D01*
X748880Y447186D01*
X746486Y449580D01*
X745190Y452707D01*
X745190Y456093D01*
X746486Y459220D01*
X748880Y461614D01*
X752007Y462910D01*
X755393Y462910D01*
X758520Y461614D01*
X760914Y459220D01*
X762210Y456093D01*
X762210Y452707D01*
X760914Y449580D01*
X758520Y447186D01*
X755393Y445890D01*
X752007Y445890D01*
G37*
%LPD*%
%LPC*%
G36*
X701207Y445890D02*
X701207Y445890D01*
X698080Y447186D01*
X695686Y449580D01*
X694390Y452707D01*
X694390Y456093D01*
X695686Y459220D01*
X698080Y461614D01*
X701207Y462910D01*
X704593Y462910D01*
X707720Y461614D01*
X710114Y459220D01*
X711410Y456093D01*
X711410Y452707D01*
X710114Y449580D01*
X707720Y447186D01*
X704593Y445890D01*
X701207Y445890D01*
G37*
%LPD*%
%LPC*%
G36*
X675807Y445890D02*
X675807Y445890D01*
X672680Y447186D01*
X670286Y449580D01*
X668990Y452707D01*
X668990Y456093D01*
X670286Y459220D01*
X672680Y461614D01*
X675807Y462910D01*
X679193Y462910D01*
X682320Y461614D01*
X684714Y459220D01*
X686010Y456093D01*
X686010Y452707D01*
X684714Y449580D01*
X682320Y447186D01*
X679193Y445890D01*
X675807Y445890D01*
G37*
%LPD*%
%LPC*%
G36*
X650407Y445890D02*
X650407Y445890D01*
X647280Y447186D01*
X644886Y449580D01*
X643590Y452707D01*
X643590Y456093D01*
X644886Y459220D01*
X647280Y461614D01*
X650407Y462910D01*
X653793Y462910D01*
X656920Y461614D01*
X659314Y459220D01*
X660610Y456093D01*
X660610Y452707D01*
X659314Y449580D01*
X656920Y447186D01*
X653793Y445890D01*
X650407Y445890D01*
G37*
%LPD*%
%LPC*%
G36*
X726607Y445890D02*
X726607Y445890D01*
X723480Y447186D01*
X721086Y449580D01*
X719790Y452707D01*
X719790Y456093D01*
X721086Y459220D01*
X723480Y461614D01*
X726607Y462910D01*
X729993Y462910D01*
X733120Y461614D01*
X735514Y459220D01*
X736810Y456093D01*
X736810Y452707D01*
X735514Y449580D01*
X733120Y447186D01*
X729993Y445890D01*
X726607Y445890D01*
G37*
%LPD*%
%LPC*%
G36*
X599607Y725290D02*
X599607Y725290D01*
X596480Y726586D01*
X594086Y728980D01*
X592790Y732107D01*
X592790Y735493D01*
X594086Y738620D01*
X596480Y741014D01*
X599607Y742310D01*
X602993Y742310D01*
X606120Y741014D01*
X608514Y738620D01*
X609810Y735493D01*
X609810Y732107D01*
X608514Y728980D01*
X606120Y726586D01*
X602993Y725290D01*
X599607Y725290D01*
G37*
%LPD*%
%LPC*%
G36*
X421807Y725290D02*
X421807Y725290D01*
X418680Y726586D01*
X416286Y728980D01*
X414990Y732107D01*
X414990Y735493D01*
X416286Y738620D01*
X418680Y741014D01*
X421807Y742310D01*
X425193Y742310D01*
X428320Y741014D01*
X430714Y738620D01*
X432010Y735493D01*
X432010Y732107D01*
X430714Y728980D01*
X428320Y726586D01*
X425193Y725290D01*
X421807Y725290D01*
G37*
%LPD*%
%LPC*%
G36*
X396407Y725290D02*
X396407Y725290D01*
X393280Y726586D01*
X390886Y728980D01*
X389590Y732107D01*
X389590Y735493D01*
X390886Y738620D01*
X393280Y741014D01*
X396407Y742310D01*
X399793Y742310D01*
X402920Y741014D01*
X405314Y738620D01*
X406610Y735493D01*
X406610Y732107D01*
X405314Y728980D01*
X402920Y726586D01*
X399793Y725290D01*
X396407Y725290D01*
G37*
%LPD*%
%LPC*%
G36*
X828207Y725290D02*
X828207Y725290D01*
X825080Y726586D01*
X822686Y728980D01*
X821390Y732107D01*
X821390Y735493D01*
X822686Y738620D01*
X825080Y741014D01*
X828207Y742310D01*
X831593Y742310D01*
X834720Y741014D01*
X837114Y738620D01*
X838410Y735493D01*
X838410Y732107D01*
X837114Y728980D01*
X834720Y726586D01*
X831593Y725290D01*
X828207Y725290D01*
G37*
%LPD*%
%LPC*%
G36*
X802807Y725290D02*
X802807Y725290D01*
X799680Y726586D01*
X797286Y728980D01*
X795990Y732107D01*
X795990Y735493D01*
X797286Y738620D01*
X799680Y741014D01*
X802807Y742310D01*
X806193Y742310D01*
X809320Y741014D01*
X811714Y738620D01*
X813010Y735493D01*
X813010Y732107D01*
X811714Y728980D01*
X809320Y726586D01*
X806193Y725290D01*
X802807Y725290D01*
G37*
%LPD*%
%LPC*%
G36*
X777407Y725290D02*
X777407Y725290D01*
X774280Y726586D01*
X771886Y728980D01*
X770590Y732107D01*
X770590Y735493D01*
X771886Y738620D01*
X774280Y741014D01*
X777407Y742310D01*
X780793Y742310D01*
X783920Y741014D01*
X786314Y738620D01*
X787610Y735493D01*
X787610Y732107D01*
X786314Y728980D01*
X783920Y726586D01*
X780793Y725290D01*
X777407Y725290D01*
G37*
%LPD*%
%LPC*%
G36*
X752007Y725290D02*
X752007Y725290D01*
X748880Y726586D01*
X746486Y728980D01*
X745190Y732107D01*
X745190Y735493D01*
X746486Y738620D01*
X748880Y741014D01*
X752007Y742310D01*
X755393Y742310D01*
X758520Y741014D01*
X760914Y738620D01*
X762210Y735493D01*
X762210Y732107D01*
X760914Y728980D01*
X758520Y726586D01*
X755393Y725290D01*
X752007Y725290D01*
G37*
%LPD*%
%LPC*%
G36*
X726607Y725290D02*
X726607Y725290D01*
X723480Y726586D01*
X721086Y728980D01*
X719790Y732107D01*
X719790Y735493D01*
X721086Y738620D01*
X723480Y741014D01*
X726607Y742310D01*
X729993Y742310D01*
X733120Y741014D01*
X735514Y738620D01*
X736810Y735493D01*
X736810Y732107D01*
X735514Y728980D01*
X733120Y726586D01*
X729993Y725290D01*
X726607Y725290D01*
G37*
%LPD*%
%LPC*%
G36*
X701207Y725290D02*
X701207Y725290D01*
X698080Y726586D01*
X695686Y728980D01*
X694390Y732107D01*
X694390Y735493D01*
X695686Y738620D01*
X698080Y741014D01*
X701207Y742310D01*
X704593Y742310D01*
X707720Y741014D01*
X710114Y738620D01*
X711410Y735493D01*
X711410Y732107D01*
X710114Y728980D01*
X707720Y726586D01*
X704593Y725290D01*
X701207Y725290D01*
G37*
%LPD*%
%LPC*%
G36*
X675807Y725290D02*
X675807Y725290D01*
X672680Y726586D01*
X670286Y728980D01*
X668990Y732107D01*
X668990Y735493D01*
X670286Y738620D01*
X672680Y741014D01*
X675807Y742310D01*
X679193Y742310D01*
X682320Y741014D01*
X684714Y738620D01*
X686010Y735493D01*
X686010Y732107D01*
X684714Y728980D01*
X682320Y726586D01*
X679193Y725290D01*
X675807Y725290D01*
G37*
%LPD*%
%LPC*%
G36*
X650407Y725290D02*
X650407Y725290D01*
X647280Y726586D01*
X644886Y728980D01*
X643590Y732107D01*
X643590Y735493D01*
X644886Y738620D01*
X647280Y741014D01*
X650407Y742310D01*
X653793Y742310D01*
X656920Y741014D01*
X659314Y738620D01*
X660610Y735493D01*
X660610Y732107D01*
X659314Y728980D01*
X656920Y726586D01*
X653793Y725290D01*
X650407Y725290D01*
G37*
%LPD*%
%LPC*%
G36*
X1065744Y782093D02*
X1065744Y782093D01*
X1063794Y782901D01*
X1062301Y784394D01*
X1061493Y786344D01*
X1061493Y788456D01*
X1062301Y790406D01*
X1063794Y791899D01*
X1065744Y792707D01*
X1067856Y792707D01*
X1069806Y791899D01*
X1071299Y790406D01*
X1072107Y788456D01*
X1072107Y786344D01*
X1071299Y784394D01*
X1069806Y782901D01*
X1067856Y782093D01*
X1065744Y782093D01*
G37*
%LPD*%
%LPC*%
G36*
X1233439Y790339D02*
X1233439Y790339D01*
X1233439Y800601D01*
X1233954Y800520D01*
X1235906Y799885D01*
X1237735Y798953D01*
X1238210Y798608D01*
X1239395Y797747D01*
X1240847Y796295D01*
X1242053Y794635D01*
X1242985Y792806D01*
X1243620Y790854D01*
X1243701Y790339D01*
X1233439Y790339D01*
G37*
%LPD*%
%LPC*%
G36*
X1108439Y790339D02*
X1108439Y790339D01*
X1108439Y800601D01*
X1108954Y800520D01*
X1110906Y799885D01*
X1112735Y798953D01*
X1113210Y798608D01*
X1114395Y797747D01*
X1115847Y796295D01*
X1117053Y794635D01*
X1117985Y792806D01*
X1118620Y790854D01*
X1118701Y790339D01*
X1108439Y790339D01*
G37*
%LPD*%
%LPC*%
G36*
X1108439Y358539D02*
X1108439Y358539D01*
X1108439Y368801D01*
X1108954Y368720D01*
X1110906Y368085D01*
X1112735Y367153D01*
X1114395Y365947D01*
X1115847Y364495D01*
X1117053Y362835D01*
X1117985Y361006D01*
X1118620Y359054D01*
X1118701Y358539D01*
X1108439Y358539D01*
G37*
%LPD*%
%LPC*%
G36*
X1233439Y358539D02*
X1233439Y358539D01*
X1233439Y368801D01*
X1233954Y368720D01*
X1235906Y368085D01*
X1237735Y367153D01*
X1239395Y365947D01*
X1240847Y364495D01*
X1242053Y362835D01*
X1242985Y361006D01*
X1243620Y359054D01*
X1243701Y358539D01*
X1233439Y358539D01*
G37*
%LPD*%
%LPC*%
G36*
X1093099Y358539D02*
X1093099Y358539D01*
X1093180Y359054D01*
X1093815Y361006D01*
X1094747Y362835D01*
X1095953Y364495D01*
X1097405Y365947D01*
X1099065Y367153D01*
X1100894Y368085D01*
X1102846Y368720D01*
X1103361Y368801D01*
X1103361Y358539D01*
X1093099Y358539D01*
G37*
%LPD*%
%LPC*%
G36*
X1218099Y358539D02*
X1218099Y358539D01*
X1218180Y359054D01*
X1218815Y361006D01*
X1219747Y362835D01*
X1220953Y364495D01*
X1222405Y365947D01*
X1224065Y367153D01*
X1225894Y368085D01*
X1227846Y368720D01*
X1228361Y368801D01*
X1228361Y358539D01*
X1218099Y358539D01*
G37*
%LPD*%
%LPC*%
G36*
X1108439Y353461D02*
X1108439Y353461D01*
X1118701Y353461D01*
X1118620Y352946D01*
X1117985Y350994D01*
X1117053Y349165D01*
X1115847Y347505D01*
X1114395Y346053D01*
X1112735Y344847D01*
X1110906Y343915D01*
X1108954Y343280D01*
X1108439Y343199D01*
X1108439Y353461D01*
G37*
%LPD*%
%LPC*%
G36*
X1233439Y785261D02*
X1233439Y785261D01*
X1243701Y785261D01*
X1243620Y784746D01*
X1242985Y782794D01*
X1242053Y780965D01*
X1240847Y779305D01*
X1239395Y777853D01*
X1237735Y776647D01*
X1235906Y775715D01*
X1233954Y775080D01*
X1233439Y774999D01*
X1233439Y785261D01*
G37*
%LPD*%
%LPC*%
G36*
X1218099Y790339D02*
X1218099Y790339D01*
X1218180Y790854D01*
X1218815Y792806D01*
X1219747Y794635D01*
X1220953Y796295D01*
X1222405Y797747D01*
X1224065Y798953D01*
X1225894Y799885D01*
X1227846Y800520D01*
X1228361Y800601D01*
X1228361Y790339D01*
X1218099Y790339D01*
G37*
%LPD*%
%LPC*%
G36*
X1093099Y790339D02*
X1093099Y790339D01*
X1093180Y790854D01*
X1093815Y792806D01*
X1094747Y794635D01*
X1095953Y796295D01*
X1097405Y797747D01*
X1099065Y798953D01*
X1100894Y799885D01*
X1102846Y800520D01*
X1103361Y800601D01*
X1103361Y790339D01*
X1093099Y790339D01*
G37*
%LPD*%
%LPC*%
G36*
X1108439Y785261D02*
X1108439Y785261D01*
X1118701Y785261D01*
X1118620Y784746D01*
X1117985Y782794D01*
X1117053Y780965D01*
X1115847Y779305D01*
X1114395Y777853D01*
X1112735Y776647D01*
X1110906Y775715D01*
X1108954Y775080D01*
X1108439Y774999D01*
X1108439Y785261D01*
G37*
%LPD*%
%LPC*%
G36*
X1233439Y353461D02*
X1233439Y353461D01*
X1243701Y353461D01*
X1243620Y352946D01*
X1242985Y350994D01*
X1242053Y349165D01*
X1240847Y347505D01*
X1239395Y346053D01*
X1237735Y344847D01*
X1235906Y343915D01*
X1233954Y343280D01*
X1233439Y343199D01*
X1233439Y353461D01*
G37*
%LPD*%
%LPC*%
G36*
X1102846Y343280D02*
X1102846Y343280D01*
X1100894Y343915D01*
X1099065Y344847D01*
X1097405Y346053D01*
X1095953Y347505D01*
X1094747Y349165D01*
X1093815Y350994D01*
X1093180Y352946D01*
X1093099Y353461D01*
X1103361Y353461D01*
X1103361Y343199D01*
X1102846Y343280D01*
G37*
%LPD*%
%LPC*%
G36*
X1227846Y343280D02*
X1227846Y343280D01*
X1225894Y343915D01*
X1224065Y344847D01*
X1222405Y346053D01*
X1220953Y347505D01*
X1219747Y349165D01*
X1218815Y350994D01*
X1218180Y352946D01*
X1218099Y353461D01*
X1228361Y353461D01*
X1228361Y343199D01*
X1227846Y343280D01*
G37*
%LPD*%
%LPC*%
G36*
X1102846Y775080D02*
X1102846Y775080D01*
X1100894Y775715D01*
X1099065Y776647D01*
X1097405Y777853D01*
X1095953Y779305D01*
X1094747Y780965D01*
X1093815Y782794D01*
X1093180Y784746D01*
X1093099Y785261D01*
X1103361Y785261D01*
X1103361Y774999D01*
X1102846Y775080D01*
G37*
%LPD*%
%LPC*%
G36*
X1227846Y775080D02*
X1227846Y775080D01*
X1225894Y775715D01*
X1224065Y776647D01*
X1222405Y777853D01*
X1220953Y779305D01*
X1219747Y780965D01*
X1218815Y782794D01*
X1218180Y784746D01*
X1218099Y785261D01*
X1228361Y785261D01*
X1228361Y774999D01*
X1227846Y775080D01*
G37*
%LPD*%
%LPC*%
G36*
X578122Y482022D02*
X578122Y482022D01*
X578122Y489093D01*
X578131Y489091D01*
X579557Y488628D01*
X580893Y487947D01*
X582106Y487066D01*
X583166Y486006D01*
X584047Y484793D01*
X584728Y483457D01*
X585191Y482031D01*
X585193Y482022D01*
X578122Y482022D01*
G37*
%LPD*%
%LPC*%
G36*
X578122Y710622D02*
X578122Y710622D01*
X578122Y717693D01*
X578131Y717691D01*
X579557Y717228D01*
X580893Y716547D01*
X582106Y715666D01*
X583166Y714606D01*
X584047Y713393D01*
X584728Y712057D01*
X585191Y710631D01*
X585193Y710622D01*
X578122Y710622D01*
G37*
%LPD*%
%LPC*%
G36*
X566607Y482022D02*
X566607Y482022D01*
X566609Y482031D01*
X567072Y483457D01*
X567753Y484793D01*
X568634Y486006D01*
X569694Y487066D01*
X570907Y487947D01*
X572243Y488628D01*
X573669Y489091D01*
X573678Y489093D01*
X573678Y482022D01*
X566607Y482022D01*
G37*
%LPD*%
%LPC*%
G36*
X578122Y706178D02*
X578122Y706178D01*
X585193Y706178D01*
X585191Y706169D01*
X584728Y704743D01*
X584047Y703407D01*
X583166Y702194D01*
X582106Y701134D01*
X580893Y700253D01*
X579557Y699572D01*
X578131Y699109D01*
X578122Y699107D01*
X578122Y706178D01*
G37*
%LPD*%
%LPC*%
G36*
X566607Y710622D02*
X566607Y710622D01*
X566609Y710631D01*
X567072Y712057D01*
X567753Y713393D01*
X568634Y714606D01*
X569694Y715666D01*
X570907Y716547D01*
X572243Y717228D01*
X573669Y717691D01*
X573678Y717693D01*
X573678Y710622D01*
X566607Y710622D01*
G37*
%LPD*%
%LPC*%
G36*
X578122Y477578D02*
X578122Y477578D01*
X585193Y477578D01*
X585191Y477569D01*
X584728Y476143D01*
X584047Y474807D01*
X583166Y473594D01*
X582106Y472534D01*
X580893Y471653D01*
X579557Y470972D01*
X578131Y470509D01*
X578122Y470507D01*
X578122Y477578D01*
G37*
%LPD*%
%LPC*%
G36*
X573669Y699109D02*
X573669Y699109D01*
X572243Y699572D01*
X570907Y700253D01*
X569694Y701134D01*
X568634Y702194D01*
X567753Y703407D01*
X567072Y704743D01*
X566609Y706169D01*
X566607Y706178D01*
X573678Y706178D01*
X573678Y699107D01*
X573669Y699109D01*
G37*
%LPD*%
%LPC*%
G36*
X573669Y470509D02*
X573669Y470509D01*
X572243Y470972D01*
X570907Y471653D01*
X569694Y472534D01*
X568634Y473594D01*
X567753Y474807D01*
X567072Y476143D01*
X566609Y477569D01*
X566607Y477578D01*
X573678Y477578D01*
X573678Y470507D01*
X573669Y470509D01*
G37*
%LPD*%
%LPC*%
G36*
X1105899Y787799D02*
X1105899Y787799D01*
X1105899Y787801D01*
X1105901Y787801D01*
X1105901Y787799D01*
X1105899Y787799D01*
G37*
%LPD*%
%LPC*%
G36*
X1230899Y787799D02*
X1230899Y787799D01*
X1230899Y787801D01*
X1230901Y787801D01*
X1230901Y787799D01*
X1230899Y787799D01*
G37*
%LPD*%
%LPC*%
G36*
X1230899Y355999D02*
X1230899Y355999D01*
X1230899Y356001D01*
X1230901Y356001D01*
X1230901Y355999D01*
X1230899Y355999D01*
G37*
%LPD*%
%LPC*%
G36*
X1105899Y355999D02*
X1105899Y355999D01*
X1105899Y356001D01*
X1105901Y356001D01*
X1105901Y355999D01*
X1105899Y355999D01*
G37*
%LPD*%
D10*
X660400Y177800D03*
X635400Y177800D03*
X615400Y177800D03*
X590400Y177800D03*
D11*
X691100Y150700D03*
X559700Y150700D03*
D12*
X177400Y165100D03*
X152400Y165100D03*
X127400Y165100D03*
X1142600Y165100D03*
X1117600Y165100D03*
X1092600Y165100D03*
D13*
X1105900Y837800D03*
X1105900Y787800D03*
X1230900Y787800D03*
X1230900Y837800D03*
X1105900Y406000D03*
X1105900Y356000D03*
X1230900Y356000D03*
X1230900Y406000D03*
D12*
X1016000Y406400D03*
X1016000Y431800D03*
X1016000Y457200D03*
X1016000Y482600D03*
X1016000Y508000D03*
X1016000Y533400D03*
X1016000Y558800D03*
X1016000Y584200D03*
X1016000Y609600D03*
X1016000Y635000D03*
X1016000Y660400D03*
X1016000Y685800D03*
X1016000Y711200D03*
X1016000Y736600D03*
X1016000Y762000D03*
X1016000Y787400D03*
X1016000Y812800D03*
X1016000Y838200D03*
X1016000Y863600D03*
X1016000Y889000D03*
D14*
X1016000Y361950D03*
X1016000Y933450D03*
X254000Y361950D03*
X254000Y933450D03*
D15*
X829900Y454400D03*
X829900Y479800D03*
X804500Y454400D03*
X804500Y479800D03*
X779100Y454400D03*
X779100Y479800D03*
X753700Y454400D03*
X753700Y479800D03*
X728300Y454400D03*
X728300Y479800D03*
X702900Y454400D03*
X702900Y479800D03*
X677500Y454400D03*
X677500Y479800D03*
X652100Y454400D03*
X652100Y479800D03*
X626700Y454400D03*
X626700Y479800D03*
X601300Y454400D03*
X601300Y479800D03*
X575900Y454400D03*
X575900Y479800D03*
X550500Y454400D03*
X550500Y479800D03*
X525100Y454400D03*
X525100Y479800D03*
X499700Y454400D03*
X499700Y479800D03*
X474300Y454400D03*
X474300Y479800D03*
X448900Y454400D03*
X448900Y479800D03*
X423500Y454400D03*
X423500Y479800D03*
X398100Y454400D03*
X398100Y479800D03*
X829900Y708400D03*
X829900Y733800D03*
X804500Y708400D03*
X804500Y733800D03*
X779100Y708400D03*
X779100Y733800D03*
X753700Y708400D03*
X753700Y733800D03*
X728300Y708400D03*
X728300Y733800D03*
X702900Y708400D03*
X702900Y733800D03*
X677500Y708400D03*
X677500Y733800D03*
X652100Y708400D03*
X652100Y733800D03*
X626700Y708400D03*
X626700Y733800D03*
X601300Y708400D03*
X601300Y733800D03*
X575900Y708400D03*
X575900Y733800D03*
X550500Y708400D03*
X550500Y733800D03*
X525100Y708400D03*
X525100Y733800D03*
X499700Y708400D03*
X499700Y733800D03*
X474300Y708400D03*
X474300Y733800D03*
X448900Y708400D03*
X448900Y733800D03*
X423500Y708400D03*
X423500Y733800D03*
X398100Y708400D03*
X398100Y733800D03*
D16*
X76200Y762000D03*
X76200Y812800D03*
X76200Y863600D03*
D17*
X1020070Y416226D02*
X1025826Y410470D01*
X689789Y479800D02*
X677500Y479800D01*
X1025826Y396574D02*
X1066800Y355600D01*
X699060Y489071D02*
X689789Y479800D01*
X1006174Y416226D02*
X1020070Y416226D01*
X1025826Y410470D02*
X1025826Y396574D01*
X933329Y489071D02*
X699060Y489071D01*
X933329Y489071D02*
X1006174Y416226D01*
D16*
X1066800Y355600D03*
X1066800Y787400D03*
M02*
