G04 EAGLE Gerber RS-274X export*
G75*
%MOMM*%
%FSLAX34Y34*%
%LPD*%
%INSoldermask Bottom*%
%IPPOS*%
%AMOC8*
5,1,8,0,0,1.08239X$1,22.5*%
G01*
%ADD10R,1.631200X1.631200*%
%ADD11C,1.631200*%
%ADD12C,3.519200*%
%ADD13C,1.711200*%
%ADD14C,2.703200*%
%ADD15R,1.473200X1.346200*%
%ADD16C,2.303200*%
%ADD17R,1.879600X1.879600*%
%ADD18C,1.879600*%
%ADD19C,4.219200*%
%ADD20R,1.727200X1.727200*%
%ADD21P,1.869504X8X202.500000*%
%ADD22C,0.959600*%


D10*
X660400Y177800D03*
D11*
X635400Y177800D03*
X615400Y177800D03*
X590400Y177800D03*
D12*
X691100Y150700D03*
X559700Y150700D03*
D13*
X177400Y165100D03*
X152400Y165100D03*
X127400Y165100D03*
D14*
X202400Y95100D03*
X102400Y95100D03*
D13*
X1142600Y165100D03*
X1117600Y165100D03*
X1092600Y165100D03*
D14*
X1167600Y95100D03*
X1067600Y95100D03*
D15*
X1066800Y821690D03*
X1066800Y803910D03*
X1066800Y389890D03*
X1066800Y372110D03*
D16*
X1105900Y837800D03*
X1105900Y787800D03*
X1230900Y787800D03*
X1230900Y837800D03*
X1105900Y406000D03*
X1105900Y356000D03*
X1230900Y356000D03*
X1230900Y406000D03*
D17*
X1016000Y406400D03*
D18*
X1016000Y431800D03*
X1016000Y457200D03*
X1016000Y482600D03*
X1016000Y508000D03*
X1016000Y533400D03*
X1016000Y558800D03*
X1016000Y584200D03*
X1016000Y609600D03*
X1016000Y635000D03*
X1016000Y660400D03*
X1016000Y685800D03*
X1016000Y711200D03*
X1016000Y736600D03*
X1016000Y762000D03*
X1016000Y787400D03*
X1016000Y812800D03*
X1016000Y838200D03*
X1016000Y863600D03*
X1016000Y889000D03*
D19*
X1016000Y361950D03*
X1016000Y933450D03*
X254000Y361950D03*
X254000Y933450D03*
D20*
X829900Y454400D03*
D21*
X829900Y479800D03*
X804500Y454400D03*
X804500Y479800D03*
X779100Y454400D03*
X779100Y479800D03*
X753700Y454400D03*
X753700Y479800D03*
X728300Y454400D03*
X728300Y479800D03*
X702900Y454400D03*
X702900Y479800D03*
X677500Y454400D03*
X677500Y479800D03*
X652100Y454400D03*
X652100Y479800D03*
X626700Y454400D03*
X626700Y479800D03*
X601300Y454400D03*
X601300Y479800D03*
X575900Y454400D03*
X575900Y479800D03*
X550500Y454400D03*
X550500Y479800D03*
X525100Y454400D03*
X525100Y479800D03*
X499700Y454400D03*
X499700Y479800D03*
X474300Y454400D03*
X474300Y479800D03*
X448900Y454400D03*
X448900Y479800D03*
X423500Y454400D03*
X423500Y479800D03*
X398100Y454400D03*
X398100Y479800D03*
D20*
X829900Y708400D03*
D21*
X829900Y733800D03*
X804500Y708400D03*
X804500Y733800D03*
X779100Y708400D03*
X779100Y733800D03*
X753700Y708400D03*
X753700Y733800D03*
X728300Y708400D03*
X728300Y733800D03*
X702900Y708400D03*
X702900Y733800D03*
X677500Y708400D03*
X677500Y733800D03*
X652100Y708400D03*
X652100Y733800D03*
X626700Y708400D03*
X626700Y733800D03*
X601300Y708400D03*
X601300Y733800D03*
X575900Y708400D03*
X575900Y733800D03*
X550500Y708400D03*
X550500Y733800D03*
X525100Y708400D03*
X525100Y733800D03*
X499700Y708400D03*
X499700Y733800D03*
X474300Y708400D03*
X474300Y733800D03*
X448900Y708400D03*
X448900Y733800D03*
X423500Y708400D03*
X423500Y733800D03*
X398100Y708400D03*
X398100Y733800D03*
D22*
X76200Y762000D03*
X76200Y812800D03*
X76200Y863600D03*
X1066800Y355600D03*
X1066800Y787400D03*
M02*
