M48
;GenerationSoftware,Autodesk,EAGLE,9.6.2*%
;CreationDate,2024-12-15T20:50:05Z*%
FMAT,2
ICI,OFF
METRIC,TZ,000.000
T8C0.350
T7C0.889
T6C0.920
T5C1.000
T4C1.400
T3C2.300
T2C2.500
T1C3.000
%
G90
M71
T1
X25400Y93345
X101600Y36195
X101600Y93345
X25400Y36195
T2
X10240Y9510
X20240Y9510
X116760Y9510
X106760Y9510
T3
X69110Y15070
X55970Y15070
T4
X123090Y83780
X123090Y40600
X123090Y35600
X110590Y35600
X110590Y40600
X110590Y78780
X123090Y78780
X110590Y83780
T5
X101600Y88900
X101600Y43180
X15240Y16510
X12740Y16510
X111760Y16510
X109260Y16510
X17740Y16510
X101600Y40640
X114260Y16510
X101600Y45720
X101600Y48260
X101600Y50800
X101600Y53340
X101600Y55880
X101600Y58420
X101600Y60960
X101600Y63500
X101600Y66040
X101600Y68580
X101600Y71120
X101600Y73660
X101600Y76200
X101600Y78740
X101600Y81280
X101600Y83820
X101600Y86360
T6
X66040Y17780
X59040Y17780
X61540Y17780
X63540Y17780
T7
X44890Y73380
X42350Y70840
X42350Y73380
X39810Y70840
X39810Y73380
X82990Y45440
X82990Y47980
X80450Y45440
X80450Y47980
X77910Y45440
X77910Y47980
X75370Y45440
X75370Y47980
X72830Y45440
X72830Y47980
X70290Y45440
X70290Y47980
X67750Y45440
X67750Y47980
X65210Y45440
X65210Y47980
X62670Y45440
X62670Y47980
X60130Y45440
X60130Y47980
X57590Y45440
X57590Y47980
X55050Y45440
X55050Y47980
X52510Y45440
X52510Y47980
X49970Y45440
X49970Y47980
X47430Y45440
X47430Y47980
X44890Y45440
X44890Y47980
X42350Y45440
X42350Y47980
X39810Y45440
X39810Y47980
X82990Y70840
X82990Y73380
X80450Y70840
X80450Y73380
X77910Y70840
X77910Y73380
X75370Y70840
X75370Y73380
X72830Y70840
X72830Y73380
X70290Y70840
X70290Y73380
X67750Y70840
X67750Y73380
X65210Y70840
X65210Y73380
X62670Y70840
X62670Y73380
X60130Y70840
X60130Y73380
X57590Y70840
X57590Y73380
X55050Y70840
X55050Y73380
X52510Y70840
X52510Y73380
X49970Y70840
X49970Y73380
X47430Y70840
X47430Y73380
X44890Y70840
T8
X7620Y81280
X7620Y86360
X106680Y35560
X106680Y78740
X7620Y76200
M30